<svg width="1000" height="219" viewBox="0 0 1000 219" fill="none" xmlns="http://www.w3.org/2000/svg">
<path d="M0 0H927.861L1000 109.453L927.861 218.905H0V0Z" fill="#D71D25"/>
<path d="M0.5 0.5H927.591L999.401 109.453L927.591 218.405H0.5V0.5Z" stroke="#636363" stroke-opacity="0.5"/>
<path d="M12.4378 9.9502H567.164L504.975 106.965L567.164 203.98H12.4378V9.9502Z" fill="white"/>
<path d="M199.005 39.801C199.005 39.801 268.657 39.801 274.876 39.801C281.095 39.801 312.189 50.9951 312.189 84.5771C312.189 118.159 279.851 125.622 279.851 125.622L315.92 176.617H287.313L238.806 106.965C238.806 106.965 259.95 106.965 263.682 106.965C267.413 106.965 287.313 105.721 287.313 84.5771C287.313 63.4329 268.657 62.1891 268.657 62.1891H223.881V176.617H199.005V39.801Z" fill="#252222"/>
<path d="M310.945 39.801H395.522V64.6766H370.647V176.617H345.771V64.6766H310.945V39.801Z" fill="#252222"/>
<path d="M395.522 39.801H410.448L449.005 100.746L487.562 39.801H516.169L460.199 120.647V176.617H435.323V120.647L414.179 89.5523L395.522 64.6766V39.801Z" fill="#252222"/>
<path d="M130.597 67.1641L143.035 41.0447L202.736 176.617H176.617L156.716 129.353H105.721L114.428 106.965H146.766L130.597 67.1641Z" fill="#252222"/>
<path d="M94.5274 39.801H104.478L44.7761 176.617H34.8259L94.5274 39.801Z" fill="#252222"/>
<path d="M110.696 39.801H120.647L60.9452 176.617H50.995L110.696 39.801Z" fill="#252222"/>
<path d="M126.866 39.801H136.816L77.1144 176.617H67.1642L126.866 39.801Z" fill="#252222"/>
<path d="M584.577 39.801H648.01C648.01 39.801 690.299 43.5324 690.299 85.8209C690.299 128.109 648.01 131.841 648.01 131.841H606.965V176.617H584.577V111.94H644.279C644.279 111.94 667.91 109.453 667.91 85.8209C667.91 62.1891 644.279 62.1891 644.279 62.1891H570.896L584.577 39.801Z" fill="white"/>
<path d="M742.537 67.1642L694.03 176.617H672.886L732.587 39.801H756.219L813.433 176.617H788.557L768.657 128.109H723.881L732.587 108.209H759.95L742.537 67.1642Z" fill="white"/>
<path d="M876.866 37.3135C876.866 37.3135 911.692 37.3135 931.592 58.4578L917.911 74.6269C917.911 74.6269 895.522 59.0796 877.488 59.0796C859.453 59.0796 832.09 70.8956 832.09 108.209C832.09 145.522 859.453 159.826 877.488 159.826C895.522 159.826 917.911 141.791 917.911 141.791L931.592 155.473C917.911 179.105 876.866 179.105 876.866 179.105C876.866 179.105 808.458 177.861 808.458 108.209C808.458 38.5573 876.866 37.3135 876.866 37.3135Z" fill="white"/>
</svg>
