<?xml version="1.0" encoding="utf-8"?>
<!-- Generator: Adobe Illustrator 24.0.0, SVG Export Plug-In . SVG Version: 6.00 Build 0)  -->
<svg version="1.1" id="Layer_1" xmlns="http://www.w3.org/2000/svg" xmlns:xlink="http://www.w3.org/1999/xlink" x="0px" y="0px"
	 viewBox="0 0 272.1 80.29" style="enable-background:new 0 0 272.1 80.29;" xml:space="preserve">
<style type="text/css">
	.st0{fill-rule:evenodd;clip-rule:evenodd;fill:#FFFFFF;}
	.st1{fill-rule:evenodd;clip-rule:evenodd;fill:#0085CA;}
	.st2{fill-rule:evenodd;clip-rule:evenodd;fill:#231F20;}
	.st3{fill:#231F20;}
</style>
<title>DanaTM4_A_cor_TM_k</title>
<g id="Layer_2_1_">
	<g id="original_logo">
		<polygon class="st0" points="76.32,0 152.99,40.13 76.44,80.29 0,40.13 76.32,0 		"/>
		<path class="st1" d="M80.36,18.15c15.63,4.85,66.81,22,66.81,22h1.32L76.4,2.27L4.49,40.17h1.19c0,0,51.32-16.92,66.95-22.05
			c2.5-0.86,5.23-0.86,7.73,0V18.15z"/>
		<path class="st2" d="M72.73,62.2c-15.36-5.41-67-22.06-67-22.06H4.52l72.05,37.9l72-37.9h-1.37c0,0-51.54,16.63-66.9,22
			c-2.45,0.86-5.12,0.86-7.57,0L72.73,62.2z"/>
		<path class="st2" d="M47.91,32.37h-8.55v16.18c0,0,5.88,0,8.55,0c3.22,0,5.61-1,7.11-2.84c1.12-1.49,1.71-3.32,1.66-5.18
			C56.68,39.18,56.25,32.47,47.91,32.37z M51.73,40.53c0.03,1.94-1.52,3.53-3.46,3.56c-0.05,0-0.1,0-0.15,0h-3.58V37h3.58
			c0.96-0.02,1.88,0.34,2.58,1c0.66,0.66,1.02,1.56,1,2.49L51.73,40.53z"/>
		<path class="st2" d="M67.93,32.38h-5.79L55.3,48.57h5.54l0.8-1.85h6.87l0.74,1.85h5.87L67.93,32.38z M63.36,42.83L65,38.58
			l1.75,4.25H63.36z"/>
		<path class="st2" d="M107.12,32.38h-5.8l-6.84,16.19H100l0.81-1.85h6.87l0.74,1.85h5.88l-7.2-16.19L107.12,32.38z M102.55,42.83
			l1.67-4.25l1.78,4.25H102.55z"/>
		<path class="st2" d="M88.22,32.38v8.71l-6.92-8.71h-5.61v16.19h5.48v-8.51l6.94,8.51h5.63V32.38H88.22z"/>
		<path class="st3" d="M170,55.36l5.11-23.78h-9.68l1.42-6.65h28.43l-1.45,6.78h-9.72l-5.12,23.65H170z"/>
		<path class="st3" d="M211.32,24.93l1,19.87l10.18-19.87h12.92l-6.53,30.43h-8.49l4.47-21.08l-10.35,21.08h-9.13l-1-21.08
			l-4.56,21.08h-8.44l6.53-30.43H211.32z"/>
		<path class="st3" d="M254.37,50.81l-1,4.55h-8.23l0.91-4.55h-13.41l1.24-5.81L253,24.93h6.91l-4.25,19.93h4.69l-1.28,6
			L254.37,50.81z M242.2,44.81h5.21l1.5-7.17c-2.21,2.44-4.41,4.92-6.71,7.22V44.81z"/>
		<path class="st3" d="M263.62,25.53h-1.79v-0.6h4.29v0.6h-1.79v4.76h-0.71V25.53z"/>
		<path class="st3" d="M266.76,24.93h1l1.69,4.51l1.7-4.51h1v5.36h-0.68v-4.46l0,0l-1.67,4.46h-0.61l-1.67-4.46l0,0v4.46h-0.67
			L266.76,24.93z"/>
	</g>
</g>
</svg>
