<?xml version="1.0" encoding="UTF-8" standalone="no"?>
<!-- Created with Inkscape (http://www.inkscape.org/) -->

<svg
   width="137.68506mm"
   height="43.5448mm"
   viewBox="0 0 137.68506 43.5448"
   version="1.1"
   id="svg5"
   xml:space="preserve"
   inkscape:export-filename="MDN.svg"
   inkscape:export-xdpi="96"
   inkscape:export-ydpi="96"
   xmlns:inkscape="http://www.inkscape.org/namespaces/inkscape"
   xmlns:sodipodi="http://sodipodi.sourceforge.net/DTD/sodipodi-0.dtd"
   xmlns="http://www.w3.org/2000/svg"
   xmlns:svg="http://www.w3.org/2000/svg"><sodipodi:namedview
     id="namedview7"
     pagecolor="#ffffff"
     bordercolor="#000000"
     borderopacity="0.25"
     inkscape:showpageshadow="2"
     inkscape:pageopacity="0.0"
     inkscape:pagecheckerboard="0"
     inkscape:deskcolor="#d1d1d1"
     inkscape:document-units="mm"
     showgrid="false" /><defs
     id="defs2" /><g
     inkscape:label="Layer 1"
     inkscape:groupmode="layer"
     id="layer1"
     transform="translate(1765.8951,266.79516)"><path
       style="fill:#000000;stroke-width:0.352778"
       d="m -1762.0039,-223.28547 c -1.3579,-0.16472 -3.8806,-1.15932 -3.8806,-1.52999 0,-0.70679 1.6674,-1.12426 2.8474,-0.71291 1.9937,0.69501 4.2082,0.43084 4.2082,-0.50199 0,-0.66404 -0.4218,-0.85583 -2.6961,-1.22598 -3.3439,-0.54423 -4.718,-2.74977 -2.8226,-4.53041 1.3982,-1.31349 5.5079,-1.44633 7.1467,-0.231 0.6221,0.46127 0.6269,0.53186 0.075,1.09252 -0.5097,0.51741 -0.8083,0.54454 -2.183,0.19838 -1.6331,-0.41121 -3.4002,-0.081 -3.4002,0.63532 0,0.4809 1.3078,1.13899 2.0423,1.02773 1.0096,-0.1529 2.6752,0.41484 3.514,1.19773 0.9896,0.92377 1.0571,2.73961 0.1329,3.57603 -0.6922,0.62647 -3.4755,1.18751 -4.9836,1.00457 z m 11.4424,-0.54365 c -0.097,-0.25383 -0.1321,-2.35727 -0.077,-4.6743 l 0.1,-4.2128 1.1465,-0.11054 1.1465,-0.11055 v 4.78485 4.78485 h -1.0694 c -0.5882,0 -1.1491,-0.20768 -1.2465,-0.46151 z m 8.7439,-4.21279 0.098,-4.67431 h 1.0268 c 0.8898,0 1.2317,0.3294 2.5625,2.46945 0.8446,1.35819 1.6582,2.511 1.8079,2.56179 0.1497,0.0508 0.869,-0.92783 1.5983,-2.17472 1.5649,-2.67512 2.0395,-3.12603 3.1274,-2.97179 0.7966,0.11291 0.8152,0.21101 0.9116,4.78958 l 0.099,4.6743 h -1.245 -1.2449 v -2.37654 -2.37654 l -1.2441,1.84738 c -1.689,2.50801 -2.5465,2.507 -4.0107,-0.005 l -1.0797,-1.85208 -0.01,2.38125 -0.01,2.38126 h -1.245 -1.245 z m 18.9623,4.09352 c -1.6158,-1.0759 -1.7542,-1.49621 -1.7542,-5.32983 v -3.65909 l 1.1465,0.11055 1.1466,0.11054 0.097,3.35139 c 0.1058,3.6489 0.409,4.23333 2.1958,4.23333 1.8365,0 2.2499,-0.69348 2.3414,-3.92745 0.046,-1.62344 0.094,-3.15015 0.1058,-3.39268 0.013,-0.24985 0.481,-0.44098 1.0806,-0.44098 0.7638,0 1.0648,0.17179 1.0817,0.61736 0.1543,4.07169 0,6.86124 -0.3935,7.34107 -1.3074,1.57529 -5.3197,2.13649 -7.0479,0.98579 z m 13.4932,-4.09352 0.099,-4.67431 1.1465,-0.11054 1.1465,-0.11055 v 3.90291 3.9029 h 2.9692 c 2.9646,0 3.5152,0.23386 3.1147,1.32292 -0.1173,0.31905 -1.325,0.44097 -4.368,0.44097 h -4.2058 z m 12.6221,4.49288 c 0,-0.0998 1.033,-2.24291 2.2955,-4.7625 1.9738,-3.93888 2.4128,-4.58108 3.1318,-4.58108 0.46,0 0.9965,0.19844 1.1923,0.44098 0.4071,0.50419 4.6692,8.63285 4.6692,8.905 0,0.0985 -0.6095,0.17902 -1.3544,0.17902 -1.1025,0 -1.4293,-0.16411 -1.7564,-0.88194 -0.3673,-0.80619 -0.5945,-0.88195 -2.6458,-0.88195 -2.0512,0 -2.2785,0.0758 -2.6458,0.88195 -0.3179,0.6977 -0.6614,0.88194 -1.6442,0.88194 -0.6832,0 -1.2422,-0.0816 -1.2422,-0.18142 z m 6.7027,-3.89304 c 0,-0.10665 -0.2562,-0.68949 -0.5695,-1.29519 -0.5959,-1.15252 -0.8221,-1.03619 -1.3518,0.69535 -0.2152,0.70341 -0.1197,0.79375 0.8392,0.79375 0.5952,0 1.0821,-0.0873 1.0821,-0.19391 z m 11.6417,0.21626 v -3.90291 h -1.7884 c -1.6529,0 -1.7799,-0.0602 -1.6757,-0.79375 0.1093,-0.76968 0.2491,-0.79674 4.6106,-0.89248 l 4.4979,-0.0987 v 0.89248 c 0,0.82157 -0.1251,0.89248 -1.5755,0.89248 h -1.5756 l -0.1001,3.79236 -0.1001,3.79236 -1.1466,0.11055 -1.1465,0.11055 z m 10.6613,-0.8161 0.098,-4.67431 h 1.0584 1.0583 l 0.098,4.67431 0.099,4.6743 h -1.2552 -1.2552 z m 10.3624,4.13546 c -1.6047,-0.83686 -1.9503,-1.55117 -1.9625,-4.05697 -0.013,-2.56253 0.4604,-3.54931 2.1094,-4.40203 2.1625,-1.11827 5.7821,-0.30374 6.754,1.51984 0.2713,0.50923 0.4592,1.87439 0.4394,3.19301 -0.033,2.16505 -0.1059,2.363 -1.2214,3.29423 -0.9878,0.82461 -1.5144,0.9904 -3.1404,0.98859 -1.0745,-0.001 -2.4148,-0.2427 -2.9785,-0.53667 z m 4.1939,-1.70619 c 0.4854,-0.35496 0.665,-0.95287 0.6848,-2.27997 0.031,-2.11019 -0.6307,-3.00092 -2.2307,-3.00092 -1.6489,0 -2.1523,0.65177 -2.1523,2.78661 0,1.53981 0.1409,1.97576 0.7841,2.42625 0.9666,0.67707 2.0467,0.70228 2.9141,0.068 z m 9.0018,-2.51747 v -4.7625 h 1.0322 c 0.8505,0 1.4999,0.52574 3.6901,2.98741 l 2.6579,2.9874 0.1023,-2.89921 0.1023,-2.89921 h 1.0583 1.0583 l 0.099,4.67431 0.098,4.6743 h -1.1572 c -1.0085,0 -1.4744,-0.36618 -3.6262,-2.85016 l -2.469,-2.85016 -0.1025,2.85016 -0.1024,2.85016 h -1.2205 -1.2205 z m -50.8881,-7.49479 c -0.3396,-0.0779 -0.6099,-0.32846 -0.6007,-0.55677 0.01,-0.22831 0.8556,-2.16135 1.8809,-4.29566 l 1.8642,-3.88055 -2.2337,-0.10432 -2.2337,-0.10431 v -10.91999 -10.91999 l 9.0841,0.004 c 8.8006,0.003 9.1397,0.0294 10.871,0.83554 2.525,1.17578 4.0894,2.67369 5.27,5.04598 0.8629,1.73378 1.0242,2.49081 1.0392,4.87475 0.021,3.34028 -0.9735,5.86262 -3.1619,8.01987 -1.3945,1.37462 -3.8325,2.73977 -4.8931,2.73977 -0.797,0 -0.6206,0.56093 1.5933,5.06668 0.9403,1.91354 1.6225,3.62011 1.516,3.79236 -0.5358,0.86693 -1.8753,0.13353 -4.5826,-2.50904 -1.5903,-1.55222 -3.0397,-2.82222 -3.221,-2.82222 -0.1812,0 -0.6816,0.47625 -1.112,1.05833 -0.9866,1.33453 -1.3342,1.32533 -2.7775,-0.0736 l -1.1678,-1.13189 -2.2003,2.1091 c -3.4121,3.27057 -4.2684,3.9252 -4.9344,3.77238 z m 6.0436,-7.04876 c 0.2077,-0.11625 -0.7031,-1.15506 -1.0127,-1.15506 -0.1444,0 -0.6082,0.83162 -1.0306,1.84804 l -0.768,1.84804 1.3345,-1.23068 c 0.7339,-0.67687 1.3985,-1.26653 1.4768,-1.31034 z m 9.367,0.5626 c -0.8605,-1.69793 -0.9537,-1.77289 -1.5053,-1.20958 -0.5504,0.5621 -0.4977,0.6776 0.8231,1.80487 0.7761,0.66238 1.4535,1.2067 1.5053,1.20958 0.052,0.003 -0.3187,-0.8093 -0.8231,-1.80487 z m -4.9827,-1.08291 c -0.4969,-0.55228 -0.608,-0.55532 -1.3973,-0.0381 l -0.8575,0.56183 0.7655,0.81483 0.7655,0.81483 0.6318,-0.77669 c 0.569,-0.69954 0.5782,-0.83628 0.092,-1.37666 z m -2.9314,-0.98752 c 0,-0.19403 -0.1588,-0.35278 -0.3528,-0.35278 -0.194,0 -0.3528,0.15875 -0.3528,0.35278 0,0.19402 0.1588,0.35277 0.3528,0.35277 0.194,0 0.3528,-0.15875 0.3528,-0.35277 z m 5.1153,0 c 0.1199,-0.19403 -0.039,-0.35278 -0.3528,-0.35278 -0.314,0 -0.4727,0.15875 -0.3528,0.35278 0.1199,0.19402 0.2787,0.35277 0.3528,0.35277 0.074,0 0.2328,-0.15875 0.3528,-0.35277 z m 4.2101,-5.2841 c 2.2879,-1.11336 4.0858,-3.90152 4.0767,-6.32202 -0.01,-1.70021 -1.5507,-4.38029 -3.1718,-5.50456 l -1.5247,-1.05738 -6.4695,-0.11621 -6.4695,-0.11621 v 6.90718 6.90718 h 6.0623 c 5.3218,0 6.2374,-0.0852 7.4965,-0.69798 z m -87.559,-6.26938 0.093,-10.84791 h 2.2931 2.293 v 8.99583 8.99583 l 6.5264,0.17639 6.5264,0.17639 0.1075,1.6757 0.1075,1.67569 h -9.0202 -9.0203 z m 18.6141,10.72393 c 0,-0.33158 2.2402,-5.34531 5.9343,-13.28156 l 3.8588,-8.29028 1.9941,-0.10614 1.9941,-0.10615 0.8331,1.87004 c 0.4582,1.02851 1.4849,3.26849 2.2816,4.97772 0.7967,1.70922 1.4485,3.16488 1.4485,3.23479 0,0.0699 0.8925,2.0052 1.9834,4.30065 2.0444,4.30168 3.3083,7.12031 3.3083,7.37778 0,0.0809 -1.0888,0.14714 -2.4196,0.14714 h -2.4195 l -1.02,-2.28357 -1.0201,-2.28357 -4.9898,-0.009 -4.9897,-0.009 -0.8809,2.20486 -0.8809,2.20486 -2.5078,0.10365 c -1.3793,0.057 -2.5079,0.0339 -2.5079,-0.0513 z m 15.0624,-8.43087 c -0.1004,-0.24254 -0.6957,-1.697 -1.323,-3.23214 -0.6273,-1.53514 -1.3397,-3.17509 -1.5831,-3.64435 -0.4325,-0.83353 -0.4591,-0.80986 -1.1552,1.02728 -0.3919,1.03425 -1.1224,2.7978 -1.6235,3.91899 -0.501,1.12119 -0.9109,2.11338 -0.9109,2.20486 0,0.0915 1.5251,0.16633 3.3891,0.16633 2.5735,0 3.3452,-0.10613 3.2066,-0.44097 z m 10.8503,8.10982 c -0.094,-0.24478 -0.1287,-5.12634 -0.077,-10.84792 l 0.094,-10.40287 2.1726,-0.10419 2.1726,-0.10419 4.878,6.10141 c 2.683,3.35578 5.2772,6.5535 5.7649,7.10604 l 0.8869,1.00463 0.1764,-7.00185 0.1764,-7.00185 h 2.293 2.2931 l 0.093,10.84791 0.093,10.84792 h -2.2317 -2.2316 l -1.7998,-2.20486 c -0.9898,-1.21267 -3.5994,-4.39666 -5.7991,-7.07553 l -3.9994,-4.87066 -0.096,7.07552 -0.095,7.07553 h -2.2968 c -1.5233,0 -2.3544,-0.1499 -2.4676,-0.44504 z m 53.5454,-10.40288 0.093,-10.84791 5.9972,-0.11053 c 6.8319,-0.1259 9.0013,0.2092 11.0738,1.71054 1.7281,1.2518 2.5082,2.66171 2.5082,4.53311 0,2.58249 -1.285,4.52048 -3.6535,5.5101 -0.707,0.29539 -1.2854,0.60429 -1.2854,0.68643 0,0.0822 0.7444,1.23096 1.6542,2.55291 2.8283,4.10967 4.343,6.41838 4.343,6.61974 0,0.10644 -1.2485,0.19353 -2.7745,0.19353 h -2.7746 l -1.8877,-3.08681 c -3.5063,-5.73378 -3.3187,-5.5346 -5.4017,-5.73263 -3.1901,-0.30327 -3.0365,-0.52765 -3.0365,4.43558 v 4.38386 h -2.4745 -2.4746 z m 12.8289,-1.86561 c 1.3088,-0.49759 2.2586,-1.66774 2.2521,-2.77448 -0.012,-2.03113 -1.2733,-2.59342 -6.2564,-2.78925 l -3.9688,-0.15597 v 3.043 3.04301 h 3.5048 c 1.9277,0 3.9384,-0.16484 4.4683,-0.36631 z m 14.2519,8.4802 c 0,-2.32834 -0.03,-4.3524 -0.067,-4.49792 -0.037,-0.14552 -0.9625,-1.61396 -2.0576,-3.26319 -4.6415,-6.99003 -5.9897,-9.12636 -5.9897,-9.49118 0,-0.43681 4.1618,-0.53778 4.8065,-0.11662 0.2182,0.14255 0.6981,0.81481 1.0664,1.49391 0.3682,0.6791 1.5234,2.62288 2.5669,4.31951 l 1.8974,3.08479 1.7988,-2.83827 c 4.3429,-6.85264 3.6601,-6.14002 5.9984,-6.26086 1.1422,-0.059 2.2226,0.0384 2.4008,0.21662 0.1967,0.19677 -1.2778,2.76318 -3.7556,6.53644 l -4.0796,6.21248 v 4.41881 4.41881 h -2.293 -2.2931 z"
       id="path477" /></g></svg>
