<svg xmlns="http://www.w3.org/2000/svg" xmlns:xlink="http://www.w3.org/1999/xlink" width="253px" height="51px" viewBox="0 0 253 51"><title>Logo/Metcor</title><g id="Desktop" stroke="none" stroke-width="1" fill="none" fill-rule="evenodd"><g id="Home-page" transform="translate(-86.000000, -28.000000)" fill="#FFFFFF"><g id="Logo/Metcor" transform="translate(86.000000, 28.297600)"><path d="M145.226918,14.1909414 C148.440439,14.1909414 151.146704,15.1267867 153.268858,16.9731598 C155.749978,19.1504695 157.008622,22.3567569 157.008622,26.5016022 L157.008622,26.5016022 L157.008622,27.2566079 L137.41826,27.2566079 C137.623513,29.1572329 138.488831,30.7034121 139.992513,31.856265 C141.438326,32.986513 143.130082,33.5579663 145.023473,33.5579663 C148.375336,33.5579663 150.558071,32.3635203 151.695553,29.9059091 L151.695553,29.9059091 L151.75523,29.7748004 L156.544769,29.7748004 L156.422702,30.0840362 C155.458826,32.535318 153.85297,34.4341346 151.648534,35.7298508 C149.721688,36.8573862 147.561558,37.4288396 145.226918,37.4288396 C141.221319,37.4288396 138.04487,36.2705615 135.787991,33.984748 C133.692963,31.8625944 132.63053,29.1120229 132.63053,25.8098905 C132.63053,22.5086622 133.692963,19.7580908 135.787991,17.6359372 C138.045774,15.3501237 141.222223,14.1909414 145.226918,14.1909414 Z M145.023473,18.0609104 C143.129177,18.0609104 141.477207,18.5799203 140.113676,19.6025686 C138.748336,20.6197918 137.890252,21.974281 137.562028,23.6307724 L137.562028,23.6307724 L152.201,23.6307724 C151.879105,21.9218375 151.087931,20.5673483 149.84918,19.5998561 C148.538996,18.5790161 146.915056,18.0609104 145.023473,18.0609104 Z" id="Combined-Shape"></path><path d="M219.818039,14.2137272 C224.235952,14.2137272 227.755092,15.3674843 230.277806,17.6433516 C232.566332,19.7636968 233.725514,22.5115557 233.725514,25.8100713 C233.725514,29.108587 232.566332,31.8564458 230.280519,33.9749826 C227.756901,36.2526583 224.236857,37.4055113 219.818039,37.4055113 C215.397413,37.4055113 211.893645,36.2526583 209.403482,33.9758868 C207.085118,31.8564458 205.911468,29.1094912 205.911468,25.8100713 C205.911468,22.5106515 207.085118,19.7636968 209.403482,17.6442558 C211.894549,15.3683885 215.398317,14.2137272 219.818039,14.2137272 Z M219.818039,18.0384863 C216.855885,18.0384863 214.584539,18.8658278 213.070007,20.4970017 C211.759823,21.8894672 211.096142,23.6770674 211.096142,25.8100713 C211.096142,27.9439795 211.759823,29.7315797 213.069102,31.123141 C214.583635,32.7543148 216.854077,33.5816563 219.818039,33.5816563 C222.781097,33.5816563 225.052444,32.7543148 226.566072,31.1240452 C227.877159,29.7306755 228.540841,27.9430753 228.540841,25.8100713 C228.540841,23.6770674 227.877159,21.8903714 226.566976,20.4979059 C225.051539,18.8658278 222.780193,18.0384863 219.818039,18.0384863 Z" id="Combined-Shape"></path><polygon id="Fill-1" points="105.965449 31.0772077 93.2560364 7.32301221 93.1990719 7.2154126 86.0893601 7.2154126 86.0893601 36.6732914 91.3219561 36.6732914 91.3219561 13.6786226 103.687773 36.6732914 108.239508 36.6732914 120.651439 13.20211 120.651439 36.6732914 125.884035 36.6732914 125.884035 7.2154126 118.867455 7.2154126"></polygon><path d="M168.169685,8.37242484 L163.648694,8.37242484 L163.648694,14.9233421 L159.255194,14.9233421 L159.255194,18.5491775 L163.648694,18.5491775 L163.648694,32.1573631 C163.648694,35.6548024 165.614421,37.4288396 169.490719,37.4288396 C171.443788,37.4288396 172.989063,37.3311862 174.085855,37.1404003 L174.273025,37.1078492 L174.273025,33.2306465 L174.008094,33.2776649 C170.085682,33.9630472 168.169685,33.3997316 168.169685,31.4656513 L168.169685,18.5491775 L174.273025,18.5491775 L174.273025,14.9233421 L168.169685,14.9233421 L168.169685,8.37242484 Z" id="Fill-4"></path><path d="M197.171125,28.5977149 C196.27416,31.9314943 194.076958,33.5518178 190.454739,33.5518178 C187.891337,33.5518178 185.91928,32.8112793 184.590109,31.3473822 C183.344123,30.015498 182.713897,28.1519451 182.713897,25.8100713 C182.713897,23.4681975 183.344123,21.6046447 184.591917,20.2700479 C185.920185,18.8088633 187.892241,18.0674206 190.454739,18.0674206 C194.38529,18.0674206 196.552653,19.4562693 197.080705,22.312632 L197.115969,22.5025137 L202.155066,22.5025137 L202.108952,22.2312542 C201.668608,19.6262586 200.313214,17.5881955 198.079844,16.1731251 C195.982104,14.8538996 193.314719,14.1847928 190.153641,14.1847928 C186.198678,14.1847928 183.053876,15.3439751 180.803326,17.6334054 C178.729095,19.782685 177.678416,22.5748495 177.678416,25.9321381 C177.678416,29.0986408 178.642292,31.7398043 180.5393,33.7778674 C182.730173,36.2047358 185.979862,37.4344456 190.196139,37.4344456 C193.30206,37.4344456 195.840145,36.7924648 197.742578,35.5238745 C199.820426,34.1142292 201.31597,31.8247989 202.189426,28.7215901 L202.272612,28.4259172 L197.217239,28.4259172 L197.171125,28.5977149 Z" id="Fill-6"></path><path d="M252.574524,14.4422181 C251.928022,14.2758456 251.122381,14.190851 250.179303,14.190851 C247.203586,14.190851 244.797514,15.5579989 243.01986,18.257031 L243.01986,14.9232516 L238.498868,14.9232516 L238.498868,36.6963485 L243.01986,36.6963485 L243.01986,25.6470444 C243.01986,23.4688305 243.64014,21.757183 244.864424,20.5600243 C246.008235,19.4415309 247.611379,18.8745985 249.628646,18.8745985 C250.393598,18.8745985 251.348431,19.0102283 252.46602,19.2760626 L252.743609,19.3420691 L252.743609,14.4856196 L252.574524,14.4422181 Z" id="Fill-10"></path><polygon id="Fill-12" points="67.0841049 6.23499031 58.3287521 -0.00036167935 33.541962 34.8049463 34.8403909 47.1942724 45.5370577 50 44.7115246 37.6513628"></polygon><polygon id="Fill-18" points="67.3013838 9.23810437 67.3013838 9.23810437 67.3013838 36.128964 48.2942298 36.128964"></polygon><polygon id="Fill-20" points="2.76784164 30.9511624 2.76784164 30.9511624 2.76784164 6.22043271 20.4150813 6.22043271"></polygon><polygon id="Fill-22" points="33.5420525 6.23499031 24.7866996 -0.00036167935 -9.04198374e-05 34.8049463 1.29833845 47.1942724 11.994101 50 11.1694721 37.6513628"></polygon><polygon id="Fill-15" points="50.3131239 6.23499031 41.557771 -0.00036167935 16.770981 34.8049463 18.0694099 47.1942724 28.7651724 50 27.9405435 37.6513628"></polygon></g></g></g></svg>