<?xml version="1.0" encoding="UTF-8"?>
<svg id="Layer_2" data-name="Layer 2" xmlns="http://www.w3.org/2000/svg" xmlns:xlink="http://www.w3.org/1999/xlink" viewBox="0 0 397.34 102.3">
  <defs>
    <style>
      .cls-1 {
        fill: url(#Yellow_Green);
      }

      .cls-1, .cls-2, .cls-3, .cls-4, .cls-5, .cls-6, .cls-7 {
        stroke-width: 0px;
      }

      .cls-8 {
        opacity: .31;
      }

      .cls-9 {
        fill: #fff;
        stroke: #fff;
        stroke-dasharray: 0 5.77;
        stroke-width: .12px;
      }

      .cls-9, .cls-10, .cls-11 {
        stroke-miterlimit: 10;
      }

      .cls-2 {
        fill: #e7eecd;
        opacity: .8;
      }

      .cls-3 {
        fill: #f3f9f1;
        opacity: .37;
      }

      .cls-10 {
        stroke: #5b5c5c;
      }

      .cls-10, .cls-4 {
        fill: none;
      }

      .cls-10, .cls-11 {
        stroke-width: 1.1px;
      }

      .cls-5 {
        fill: #474847;
      }

      .cls-11 {
        fill: url(#radial-gradient);
        stroke: #878686;
      }

      .cls-12 {
        clip-path: url(#clippath);
      }

      .cls-6 {
        fill: #96c93f;
      }

      .cls-7 {
        fill: #949494;
      }
    </style>
    <radialGradient id="radial-gradient" cx="49.5" cy="60.13" fx="64.23" fy="4.16" r="60.55" gradientUnits="userSpaceOnUse">
      <stop offset="0" stop-color="#fff"/>
      <stop offset=".26" stop-color="#fff"/>
      <stop offset=".4" stop-color="#f0f0f0"/>
      <stop offset=".66" stop-color="#c9cacb"/>
      <stop offset=".82" stop-color="#aeafb1"/>
      <stop offset=".85" stop-color="#adaeb0"/>
      <stop offset=".87" stop-color="#a3a5a7"/>
      <stop offset=".91" stop-color="#898d8f"/>
      <stop offset=".95" stop-color="#5e6669"/>
      <stop offset=".98" stop-color="#465053"/>
    </radialGradient>
    <clipPath id="clippath">
      <path class="cls-4" d="M45.86,11.92c21.93-2.92,42.08,12.49,45,34.41,2.92,21.93-12.49,42.08-34.41,45-21.93,2.92-42.08-12.49-45-34.41-2.92-21.93,12.48-42.08,34.41-45Z"/>
    </clipPath>
    <linearGradient id="Yellow_Green" data-name="Yellow Green" x1="-23.36" y1="70.36" x2="56.76" y2="70.36" gradientTransform="translate(-16.51 77.47) rotate(-97.59)" gradientUnits="userSpaceOnUse">
      <stop offset="0" stop-color="#d1e4a5"/>
      <stop offset=".5" stop-color="#acd479"/>
      <stop offset="1" stop-color="#76b83f"/>
    </linearGradient>
  </defs>
  <g>
    <path class="cls-6" d="M131.74,64.18h-3.19v-22.57c0-.23-.04-.47-.11-.74-.08-.26-.23-.51-.47-.74-.24-.23-.57-.42-1-.59-.43-.16-1-.25-1.73-.25s-1.26.08-1.68.25c-.41.16-.73.37-.94.62-.21.25-.35.51-.41.77-.06.26-.09.51-.09.74v22.49h-3.22v-22.57c0-.23-.04-.47-.11-.74-.08-.26-.23-.51-.47-.74-.24-.23-.57-.42-1-.59-.43-.16-1.01-.25-1.74-.25-.68,0-1.23.08-1.65.25-.42.16-.74.37-.96.62-.23.25-.37.51-.43.77-.06.26-.09.51-.09.74v22.49h-3.22v-23.14c0-.28.05-.67.15-1.19.1-.52.37-1.03.81-1.53.44-.5,1.09-.94,1.95-1.3.86-.37,2.04-.55,3.55-.55,1.21,0,2.19.12,2.95.36.76.24,1.37.54,1.85.89.5-.35,1.13-.65,1.89-.89.76-.24,1.74-.36,2.95-.36,1.51,0,2.7.18,3.55.55.86.37,1.5.8,1.93,1.3.43.5.69,1.02.79,1.53.1.52.15.91.15,1.19v23.14Z"/>
    <path class="cls-6" d="M148.6,59.32v.6c0,.3-.05.71-.15,1.21s-.37,1.01-.79,1.51c-.43.5-1.07.94-1.93,1.3-.86.37-2.04.55-3.55.55s-2.69-.18-3.55-.55c-.86-.37-1.5-.8-1.93-1.3-.43-.5-.69-1.01-.79-1.53s-.15-.91-.15-1.19v-11.19c0-.28.05-.67.15-1.19s.37-1.03.79-1.53c.43-.5,1.07-.94,1.93-1.3.86-.37,2.04-.55,3.55-.55s2.69.18,3.55.55c.86.37,1.5.8,1.93,1.3.43.5.69,1.01.79,1.51s.15.91.15,1.21v10.59ZM145.38,58.93v-9.63c0-.23-.04-.47-.11-.74-.08-.26-.23-.51-.47-.74-.24-.23-.57-.42-1-.59-.43-.16-1-.25-1.73-.25-.68,0-1.22.08-1.64.25-.41.16-.73.37-.96.6-.23.24-.37.5-.43.77-.06.28-.09.52-.09.72v9.97c0,.2.03.44.09.72.06.28.21.53.43.77.23.24.55.44.96.6.41.16.96.25,1.64.25.73,0,1.31-.08,1.73-.25.43-.16.76-.36,1-.59.24-.23.39-.47.47-.74.08-.26.11-.51.11-.74v-.42Z"/>
    <path class="cls-6" d="M165.19,64.18h-3.22v-14.85c0-.23-.03-.47-.09-.74-.06-.26-.21-.52-.43-.76-.23-.24-.55-.44-.96-.6-.41-.16-.96-.25-1.64-.25s-1.27.08-1.71.25c-.44.16-.78.36-1.02.59-.24.23-.4.47-.47.74-.08.26-.11.5-.11.7v14.92h-3.22v-15.46c0-.3.05-.71.15-1.21s.37-1.01.81-1.51,1.09-.94,1.94-1.3c.86-.37,2.04-.55,3.55-.55s2.69.18,3.55.55c.86.37,1.5.8,1.93,1.3s.69,1.01.79,1.53c.1.52.15.91.15,1.19v15.46Z"/>
    <path class="cls-6" d="M177.8,61.34v2.84c-1.51,0-2.7-.18-3.56-.55-.86-.37-1.51-.8-1.95-1.3-.44-.5-.71-1.01-.81-1.53-.1-.52-.15-.91-.15-1.19v-12.77h-2.42v-2.69h2.42v-5.03h3.22v5.03h3.25v2.69h-3.25v12.12c0,.23.03.47.09.74.06.26.21.52.43.77.23.25.55.46.96.62s.96.25,1.64.25h.11Z"/>
    <path class="cls-6" d="M186.89,44.18c.43,0,.8,0,1.12-.02.31-.01.65,0,1,.05l-.72,2.78c-.3,0-.55,0-.76.02-.2.01-.44.02-.72.02-.68,0-1.23.09-1.64.26-.42.18-.74.38-.96.62-.23.24-.37.49-.43.76-.06.26-.09.51-.09.74v14.78h-3.22v-15.43c0-.28.05-.67.15-1.19.1-.52.37-1.03.79-1.53.43-.5,1.07-.94,1.93-1.3.86-.37,2.04-.55,3.56-.55Z"/>
    <path class="cls-6" d="M197.2,44.15c1.51,0,2.69.18,3.55.55.86.37,1.5.8,1.93,1.3.43.5.69,1.01.79,1.53.1.52.15.91.15,1.19v1.81c0,.43-.08.91-.25,1.44-.16.53-.55,1.1-1.15,1.7-.28.3-.59.53-.94.68-.35.15-.67.26-.94.34-.33.1-.67.15-1.02.15h-2.87c-.65,0-1.23.24-1.73.72-.5.48-.75,1.07-.75,1.78v1.7c0,.61.11,1.08.34,1.44.1.18.21.33.34.45.12.13.31.24.56.34.2.1.46.19.77.27.31.08.72.11,1.22.11.65,0,1.17-.07,1.54-.21.38-.14.64-.26.79-.36.33-.25.55-.55.68-.91s.19-.73.19-1.13h3.22v.91c0,.68-.15,1.31-.43,1.89-.29.58-.74,1.09-1.34,1.52-.43.3-1.02.57-1.78.8-.76.23-1.71.34-2.87.34-.86,0-1.6-.07-2.23-.21-.63-.14-1.18-.31-1.64-.53-.47-.21-.85-.46-1.15-.74-.3-.28-.55-.55-.76-.83-.45-.66-.67-1.41-.64-2.27v-11.19c0-.3.05-.71.15-1.21.1-.5.37-1.01.79-1.51.43-.5,1.07-.94,1.93-1.3.86-.37,2.04-.55,3.55-.55ZM200.4,49.67v-.34c0-.23-.03-.47-.09-.73-.06-.26-.21-.51-.43-.75-.23-.24-.55-.44-.96-.6-.41-.16-.96-.25-1.64-.25s-1.27.08-1.71.25c-.44.16-.78.36-1.02.58-.24.23-.39.47-.47.73-.07.26-.11.5-.11.7v3.92c.05-.23.16-.41.34-.55.18-.14.38-.25.6-.32.23-.08.45-.13.68-.15.23-.03.4-.04.53-.04h2.15c.58,0,1.08-.21,1.51-.62.43-.41.64-.91.64-1.49v-.34Z"/>
    <path class="cls-6" d="M213.09,44.15c2.22,0,3.84.44,4.87,1.3,1.03.87,1.55,1.96,1.55,3.27v11.19c0,.45-.08.95-.25,1.49-.16.54-.49,1.04-.96,1.49-.48.45-1.13.83-1.96,1.13-.83.3-1.91.45-3.25.45s-2.42-.15-3.25-.45c-.83-.3-1.49-.68-1.96-1.13-.48-.45-.8-.95-.96-1.49s-.25-1.04-.25-1.49v-1.78c0-.96.25-1.83.74-2.61.49-.78,1.19-1.34,2.09-1.66.45-.15.97-.33,1.55-.53.58-.2,1.14-.4,1.68-.59.54-.19,1.01-.36,1.41-.51.4-.15.65-.24.75-.26.1-.05.23-.12.4-.21.16-.09.32-.22.47-.4.15-.18.28-.38.4-.6.11-.23.17-.49.17-.79v-.72c0-.25-.05-.51-.15-.77-.1-.26-.28-.51-.53-.74-.25-.23-.58-.41-1-.55-.41-.14-.94-.21-1.56-.21-1.26,0-2.1.26-2.54.77-.44.51-.66,1.13-.66,1.86h-3.22v-.91c0-.63.12-1.22.36-1.77.24-.55.62-1.04,1.15-1.45.53-.42,1.2-.74,2-.98.81-.24,1.78-.36,2.91-.36ZM216.32,54.17c-.05.25-.18.44-.38.57-.2.13-.39.21-.56.26-.38.13-.79.27-1.22.44-.44.16-.85.31-1.22.43-.45.15-.88.3-1.28.45-.3.13-.59.3-.87.53-.23.2-.43.46-.62.77-.19.32-.28.71-.28,1.19,0,.96.23,1.67.68,2.14.45.47,1.29.7,2.52.7s2.11-.25,2.56-.74c.45-.49.68-1.19.68-2.1v-4.65Z"/>
    <path class="cls-6" d="M224.2,36.78h3.19v27.41h-3.19v-27.41Z"/>
    <path class="cls-7" d="M243.97,47.13v.23c0,.91-.3,1.77-.89,2.57-.59.81-1.6,1.42-3.04,1.85-.05,0-.12.03-.23.08-.38.13-.79.26-1.23.42-.44.15-.85.29-1.23.42-.45.15-.88.3-1.28.45-.3.08-.59.2-.87.38-.23.15-.43.35-.62.59-.19.24-.28.55-.28.93v9.15h-3.22v-23.14c0-.28.05-.67.15-1.19.1-.52.37-1.03.81-1.53.44-.5,1.09-.94,1.94-1.3.86-.37,2.04-.55,3.55-.55s2.69.18,3.55.55c.86.37,1.5.8,1.93,1.3.43.5.69,1.02.79,1.53.1.52.15.91.15,1.19v6.09ZM235.16,50.28c.34-.13.7-.25,1.07-.38.38-.13.75-.26,1.13-.4.38-.14.71-.26,1.02-.36.15-.05.3-.1.45-.15.15-.05.29-.1.41-.15.65-.23,1.07-.54,1.24-.95.18-.4.26-.77.26-1.1v-5.18c0-.23-.04-.47-.11-.74-.08-.26-.23-.51-.47-.74-.24-.23-.57-.42-1-.59-.43-.16-1-.25-1.73-.25-.68,0-1.22.08-1.64.25-.41.16-.73.37-.96.62-.23.25-.37.51-.43.77-.06.26-.09.51-.09.74v8.89c.23-.08.51-.18.85-.3Z"/>
    <path class="cls-7" d="M254.13,44.18c.43,0,.8,0,1.12-.02.32-.01.65,0,1,.05l-.72,2.78c-.3,0-.55,0-.76.02-.2.01-.44.02-.72.02-.68,0-1.23.09-1.65.26-.42.18-.74.38-.96.62-.23.24-.37.49-.44.76-.06.26-.09.51-.09.74v14.78h-3.22v-15.43c0-.28.05-.67.15-1.19.1-.52.37-1.03.79-1.53.43-.5,1.07-.94,1.93-1.3.86-.37,2.04-.55,3.56-.55Z"/>
    <path class="cls-7" d="M262.14,36.81v3.81h-3.19v-3.81h3.19ZM258.96,44.45h3.19v19.74h-3.19v-19.74Z"/>
    <path class="cls-7" d="M278.73,64.18h-3.22v-14.85c0-.23-.03-.47-.09-.74-.06-.26-.21-.52-.43-.76-.23-.24-.55-.44-.96-.6-.41-.16-.96-.25-1.64-.25s-1.27.08-1.71.25c-.44.16-.78.36-1.02.59-.24.23-.4.47-.47.74-.08.26-.11.5-.11.7v14.92h-3.22v-15.46c0-.3.05-.71.15-1.21.1-.5.37-1.01.81-1.51.44-.5,1.09-.94,1.94-1.3.86-.37,2.04-.55,3.55-.55s2.69.18,3.55.55c.86.37,1.5.8,1.92,1.3.43.5.69,1.01.79,1.53.1.52.15.91.15,1.19v15.46Z"/>
    <path class="cls-7" d="M291.33,61.34v2.84c-1.51,0-2.7-.18-3.55-.55s-1.51-.8-1.95-1.3c-.44-.5-.71-1.01-.81-1.53-.1-.52-.15-.91-.15-1.19v-12.77h-2.42v-2.69h2.42v-5.03h3.22v5.03h3.25v2.69h-3.25v12.12c0,.23.03.47.09.74.06.26.21.52.43.77.23.25.55.46.96.62.42.16.96.25,1.64.25h.11Z"/>
    <path class="cls-7" d="M297.62,36.81v3.81h-3.19v-3.81h3.19ZM294.43,44.45h3.19v19.74h-3.19v-19.74Z"/>
    <path class="cls-7" d="M314.21,64.18h-3.22v-14.85c0-.23-.03-.47-.09-.74-.06-.26-.21-.52-.43-.76-.23-.24-.55-.44-.96-.6-.41-.16-.96-.25-1.64-.25s-1.27.08-1.71.25c-.44.16-.78.36-1.02.59-.24.23-.4.47-.47.74-.08.26-.11.5-.11.7v14.92h-3.22v-15.46c0-.3.05-.71.15-1.21.1-.5.37-1.01.81-1.51.44-.5,1.09-.94,1.94-1.3.86-.37,2.04-.55,3.55-.55s2.69.18,3.55.55c.86.37,1.5.8,1.92,1.3.43.5.69,1.01.79,1.53s.15.91.15,1.19v15.46Z"/>
    <path class="cls-7" d="M324.82,44.15c1.51,0,2.69.18,3.55.55.86.37,1.5.8,1.93,1.3.43.5.69,1.01.79,1.53.1.52.15.91.15,1.19v1.81c0,.43-.08.91-.23,1.45-.15.54-.53,1.1-1.13,1.68-.3.3-.62.53-.96.68-.34.15-.65.26-.93.34-.33.1-.67.15-1.02.15h-2.9c-.65,0-1.23.23-1.73.68-.5.45-.75,1.06-.75,1.82v.79c0,.28.06.51.17.7.11.19.25.34.42.45.16.11.33.2.49.27.16.06.28.12.36.17.1.03.35.11.75.25.4.14.87.3,1.39.49.53.19,1.09.38,1.68.59.59.2,1.11.38,1.57.53.91.33,1.6.88,2.09,1.67.49.78.74,1.65.74,2.61v1.78c0,.45-.08.95-.25,1.5-.16.54-.49,1.04-.96,1.5-.48.45-1.13.83-1.96,1.14-.83.3-1.91.45-3.25.45s-2.42-.15-3.25-.45c-.83-.3-1.49-.68-1.96-1.13-.48-.45-.8-.95-.96-1.49-.16-.54-.25-1.04-.25-1.49v-18.91c0-.28.05-.67.15-1.19.1-.52.37-1.03.79-1.53.43-.5,1.07-.94,1.93-1.3.86-.37,2.04-.55,3.55-.55ZM328.03,49.37c0-.23-.03-.47-.09-.73-.06-.26-.2-.52-.41-.77-.21-.25-.53-.46-.94-.62-.41-.16-.97-.24-1.67-.24s-1.27.08-1.71.25c-.44.16-.78.36-1.02.58-.24.23-.39.47-.47.73-.07.26-.11.51-.11.73v3.92c.05-.23.16-.41.34-.55.18-.14.38-.25.62-.32.24-.08.47-.13.7-.15.23-.03.39-.04.49-.04h2.18c.58,0,1.07-.21,1.49-.62s.62-.92.62-1.52v-.64ZM322.53,62.72c-.18-.05-.36-.14-.56-.26-.2-.13-.33-.31-.38-.57v4.65c0,.91.23,1.61.68,2.1.45.49,1.31.74,2.56.74s2.07-.23,2.52-.7c.45-.47.68-1.18.68-2.14,0-.48-.09-.88-.26-1.19-.18-.32-.38-.57-.6-.78-.28-.23-.58-.4-.9-.53-.4-.15-.83-.3-1.28-.45-.38-.13-.78-.27-1.21-.43-.43-.16-.84-.31-1.24-.43Z"/>
    <path class="cls-7" d="M334.72,60.87h3.25v3.31h-3.25v-3.31Z"/>
    <path class="cls-7" d="M351.34,49.62v-.37c0-.25-.05-.51-.15-.77-.1-.26-.28-.51-.53-.73-.25-.22-.58-.41-1-.54-.41-.14-.93-.21-1.56-.21-1.25,0-2.1.26-2.54.77-.44.51-.66,1.13-.66,1.86v9.19c0,.96.23,1.67.68,2.14.45.47,1.29.7,2.52.7s2.11-.25,2.56-.74c.45-.49.68-1.19.68-2.1h3.19v1.1c0,.45-.08.95-.25,1.5-.16.54-.48,1.04-.96,1.5-.48.46-1.13.83-1.96,1.14-.83.3-1.91.46-3.25.46s-2.42-.15-3.25-.45c-.83-.3-1.49-.68-1.96-1.13-.48-.45-.8-.95-.96-1.49-.16-.54-.25-1.04-.25-1.49v-11.19c0-.63.12-1.22.36-1.78.24-.55.62-1.04,1.15-1.46s1.2-.74,2-.98c.8-.24,1.78-.36,2.91-.36,2.24,0,3.87.43,4.89,1.3,1.02.87,1.53,1.96,1.53,3.26v.91h-3.19Z"/>
    <path class="cls-7" d="M371.09,59.32v.6c0,.3-.05.71-.15,1.21s-.37,1.01-.79,1.51c-.43.5-1.07.94-1.93,1.3-.86.37-2.04.55-3.55.55s-2.7-.18-3.55-.55c-.86-.37-1.5-.8-1.93-1.3-.43-.5-.69-1.01-.79-1.53-.1-.52-.15-.91-.15-1.19v-11.19c0-.28.05-.67.15-1.19.1-.52.37-1.03.79-1.53.43-.5,1.07-.94,1.93-1.3.86-.37,2.04-.55,3.55-.55s2.69.18,3.55.55c.86.37,1.5.8,1.93,1.3.43.5.69,1.01.79,1.51s.15.91.15,1.21v10.59ZM367.87,58.93v-9.63c0-.23-.04-.47-.11-.74-.08-.26-.23-.51-.47-.74-.24-.23-.57-.42-1-.59-.43-.16-1-.25-1.73-.25-.68,0-1.22.08-1.64.25-.41.16-.73.37-.96.6-.23.24-.37.5-.43.77-.06.28-.09.52-.09.72v9.97c0,.2.03.44.09.72.06.28.21.53.43.77.22.24.54.44.96.6.41.16.96.25,1.64.25.73,0,1.3-.08,1.73-.25.43-.16.76-.36,1-.59.24-.23.4-.47.47-.74.08-.26.11-.51.11-.74v-.42Z"/>
    <path class="cls-7" d="M397.34,64.18h-3.22v-14.85c0-.23-.03-.47-.09-.74-.06-.26-.2-.52-.42-.76-.21-.24-.53-.44-.95-.6-.42-.16-.98-.25-1.68-.25s-1.28.08-1.72.25c-.44.16-.78.36-1.02.59-.24.23-.4.47-.47.74-.08.26-.11.5-.11.7v14.92h-3.22v-14.85c0-.23-.03-.47-.09-.74-.06-.26-.2-.52-.41-.76-.21-.24-.53-.44-.94-.6-.41-.16-.97-.25-1.67-.25s-1.27.08-1.71.25c-.44.16-.78.36-1.02.59-.24.23-.39.47-.47.74-.07.26-.11.5-.11.7v14.92h-3.19v-15.46c0-.3.05-.71.15-1.21.1-.5.37-1.01.79-1.51.43-.5,1.07-.94,1.93-1.3.86-.37,2.04-.55,3.55-.55,1.21,0,2.2.12,2.97.36.77.24,1.39.54,1.87.89.48-.35,1.1-.65,1.87-.89.77-.24,1.76-.36,2.97-.36,1.51,0,2.7.18,3.55.55.86.37,1.5.8,1.93,1.3s.69,1.01.79,1.53c.1.52.15.91.15,1.19v15.46Z"/>
  </g>
  <g>
    <path class="cls-11" d="M101.75,51.15c0,27.95-22.65,50.6-50.6,50.6S.55,79.1.55,51.15,23.2.55,51.15.55s50.6,22.65,50.6,50.6Z"/>
    <g class="cls-12">
      <path class="cls-1" d="M45.73,11.92c21.93-2.92,42.08,12.49,45,34.41,2.92,21.93-12.48,42.08-34.41,45-21.93,2.92-42.08-12.49-45-34.41-2.92-21.93,12.48-42.08,34.41-45Z"/>
      <g class="cls-8">
        <path class="cls-9" d="M17.4,10.57h3.75c.96,0,1.73.78,1.73,1.73v8.24c0,.96-.78,1.73-1.73,1.73h-3.75c-.96,0-1.73-.78-1.73-1.73v-8.24c0-.96.78-1.73,1.73-1.73Z"/>
        <path class="cls-9" d="M27.35,10.57h3.75c.96,0,1.73.78,1.73,1.73v8.24c0,.96-.78,1.73-1.73,1.73h-3.75c-.96,0-1.73-.78-1.73-1.73v-8.24c0-.96.78-1.73,1.73-1.73Z"/>
        <path class="cls-9" d="M37.13,10.17h3.75c.96,0,1.73.78,1.73,1.73v8.24c0,.96-.78,1.73-1.73,1.73h-3.75c-.96,0-1.73-.78-1.73-1.73v-8.24c0-.96.78-1.73,1.73-1.73Z"/>
        <path class="cls-9" d="M47.07,10.17h3.75c.96,0,1.73.78,1.73,1.73v8.24c0,.96-.78,1.73-1.73,1.73h-3.75c-.96,0-1.73-.78-1.73-1.73v-8.24c0-.96.78-1.73,1.73-1.73Z"/>
        <path class="cls-9" d="M56.7,10.37h3.75c.96,0,1.73.78,1.73,1.73v8.24c0,.96-.78,1.73-1.73,1.73h-3.75c-.96,0-1.73-.78-1.73-1.73v-8.24c0-.96.78-1.73,1.73-1.73Z"/>
        <path class="cls-9" d="M66.64,10.37h3.75c.96,0,1.73.78,1.73,1.73v8.24c0,.96-.78,1.73-1.73,1.73h-3.75c-.96,0-1.73-.78-1.73-1.73v-8.24c0-.96.78-1.73,1.73-1.73Z"/>
        <path class="cls-9" d="M76.42,10.45h3.75c.96,0,1.73.78,1.73,1.73v8.24c0,.96-.78,1.73-1.73,1.73h-3.75c-.96,0-1.73-.78-1.73-1.73v-8.24c0-.96.78-1.73,1.73-1.73Z"/>
        <path class="cls-9" d="M86.36,10.45h3.75c.96,0,1.73.78,1.73,1.73v8.24c0,.96-.78,1.73-1.73,1.73h-3.75c-.96,0-1.73-.78-1.73-1.73v-8.24c0-.96.78-1.73,1.73-1.73Z"/>
        <path class="cls-9" d="M96.47,10.45h3.75c.96,0,1.73.78,1.73,1.73v8.24c0,.96-.78,1.73-1.73,1.73h-3.75c-.96,0-1.73-.78-1.73-1.73v-8.24c0-.96.78-1.73,1.73-1.73Z"/>
        <path class="cls-9" d="M7.37,10.37h3.75c.96,0,1.73.78,1.73,1.73v8.24c0,.96-.78,1.73-1.73,1.73h-3.75c-.96,0-1.73-.78-1.73-1.73v-8.24c0-.96.78-1.73,1.73-1.73Z"/>
        <path class="cls-9" d="M17.4,24.17h3.75c.96,0,1.73.78,1.73,1.73v8.24c0,.96-.78,1.73-1.73,1.73h-3.75c-.96,0-1.73-.78-1.73-1.73v-8.24c0-.96.78-1.73,1.73-1.73Z"/>
        <rect class="cls-9" x="25.62" y="24.17" width="7.22" height="11.71" rx="1.73" ry="1.73"/>
        <path class="cls-9" d="M37.13,23.76h3.75c.96,0,1.73.78,1.73,1.73v8.24c0,.96-.78,1.73-1.73,1.73h-3.75c-.96,0-1.73-.78-1.73-1.73v-8.24c0-.96.78-1.73,1.73-1.73Z"/>
        <path class="cls-9" d="M47.07,23.76h3.75c.96,0,1.73.78,1.73,1.73v8.24c0,.96-.78,1.73-1.73,1.73h-3.75c-.96,0-1.73-.78-1.73-1.73v-8.24c0-.96.78-1.73,1.73-1.73Z"/>
        <path class="cls-9" d="M56.7,23.97h3.75c.96,0,1.73.78,1.73,1.73v8.24c0,.96-.78,1.73-1.73,1.73h-3.75c-.96,0-1.73-.78-1.73-1.73v-8.24c0-.96.78-1.73,1.73-1.73Z"/>
        <path class="cls-9" d="M66.64,23.97h3.75c.96,0,1.73.78,1.73,1.73v8.24c0,.96-.78,1.73-1.73,1.73h-3.75c-.96,0-1.73-.78-1.73-1.73v-8.24c0-.96.78-1.73,1.73-1.73Z"/>
        <path class="cls-9" d="M76.42,24.05h3.75c.96,0,1.73.78,1.73,1.73v8.24c0,.96-.78,1.73-1.73,1.73h-3.75c-.96,0-1.73-.78-1.73-1.73v-8.24c0-.96.78-1.73,1.73-1.73Z"/>
        <path class="cls-9" d="M86.36,24.05h3.75c.96,0,1.73.78,1.73,1.73v8.24c0,.96-.78,1.73-1.73,1.73h-3.75c-.96,0-1.73-.78-1.73-1.73v-8.24c0-.96.78-1.73,1.73-1.73Z"/>
        <path class="cls-9" d="M96.47,24.05h3.75c.96,0,1.73.78,1.73,1.73v8.24c0,.96-.78,1.73-1.73,1.73h-3.75c-.96,0-1.73-.78-1.73-1.73v-8.24c0-.96.78-1.73,1.73-1.73Z"/>
        <path class="cls-9" d="M7.37,23.97h3.75c.96,0,1.73.78,1.73,1.73v8.24c0,.96-.78,1.73-1.73,1.73h-3.75c-.96,0-1.73-.78-1.73-1.73v-8.24c0-.96.78-1.73,1.73-1.73Z"/>
        <path class="cls-9" d="M17.4,37.77h3.75c.96,0,1.73.78,1.73,1.73v8.24c0,.96-.78,1.73-1.73,1.73h-3.75c-.96,0-1.73-.78-1.73-1.73v-8.24c0-.96.78-1.73,1.73-1.73Z"/>
        <path class="cls-9" d="M27.35,37.77h3.75c.96,0,1.73.78,1.73,1.73v8.24c0,.96-.78,1.73-1.73,1.73h-3.75c-.96,0-1.73-.78-1.73-1.73v-8.25c0-.96.78-1.73,1.73-1.73Z"/>
        <path class="cls-9" d="M37.13,37.37h3.75c.96,0,1.73.78,1.73,1.73v8.24c0,.96-.78,1.73-1.73,1.73h-3.75c-.96,0-1.73-.78-1.73-1.73v-8.25c0-.96.78-1.73,1.73-1.73Z"/>
        <path class="cls-9" d="M47.07,37.37h3.75c.96,0,1.73.78,1.73,1.73v8.24c0,.96-.78,1.73-1.73,1.73h-3.75c-.96,0-1.73-.78-1.73-1.73v-8.24c0-.96.78-1.73,1.73-1.73Z"/>
        <rect class="cls-9" x="54.96" y="37.57" width="7.22" height="11.71" rx="1.73" ry="1.73"/>
        <path class="cls-9" d="M66.64,37.57h3.75c.96,0,1.73.78,1.73,1.73v8.24c0,.96-.78,1.73-1.73,1.73h-3.75c-.96,0-1.73-.78-1.73-1.73v-8.24c0-.96.78-1.73,1.73-1.73Z"/>
        <path class="cls-9" d="M76.42,37.65h3.75c.96,0,1.73.78,1.73,1.73v8.24c0,.96-.78,1.73-1.73,1.73h-3.75c-.96,0-1.73-.78-1.73-1.73v-8.24c0-.96.78-1.73,1.73-1.73Z"/>
        <path class="cls-9" d="M86.36,37.65h3.75c.96,0,1.73.78,1.73,1.73v8.24c0,.96-.78,1.73-1.73,1.73h-3.75c-.96,0-1.73-.78-1.73-1.73v-8.24c0-.96.78-1.73,1.73-1.73Z"/>
        <path class="cls-9" d="M96.47,37.65h3.75c.96,0,1.73.78,1.73,1.73v8.24c0,.96-.78,1.73-1.73,1.73h-3.75c-.96,0-1.73-.78-1.73-1.73v-8.24c0-.96.78-1.73,1.73-1.73Z"/>
        <path class="cls-9" d="M7.37,37.57h3.75c.96,0,1.73.78,1.73,1.73v8.24c0,.96-.78,1.73-1.73,1.73h-3.75c-.96,0-1.73-.78-1.73-1.73v-8.24c0-.96.78-1.73,1.73-1.73Z"/>
        <path class="cls-9" d="M17.4,51.37h3.75c.96,0,1.73.78,1.73,1.73v8.24c0,.96-.78,1.73-1.73,1.73h-3.75c-.96,0-1.73-.78-1.73-1.73v-8.24c0-.96.78-1.73,1.73-1.73Z"/>
        <path class="cls-9" d="M27.35,51.37h3.75c.96,0,1.73.78,1.73,1.73v8.25c0,.96-.78,1.73-1.73,1.73h-3.75c-.96,0-1.73-.78-1.73-1.73v-8.24c0-.96.78-1.73,1.73-1.73Z"/>
        <path class="cls-9" d="M37.13,50.96h3.75c.96,0,1.73.78,1.73,1.73v8.24c0,.96-.78,1.73-1.73,1.73h-3.75c-.96,0-1.73-.78-1.73-1.73v-8.24c0-.96.78-1.73,1.73-1.73Z"/>
        <path class="cls-9" d="M47.07,50.96h3.75c.96,0,1.73.78,1.73,1.73v8.24c0,.96-.78,1.73-1.73,1.73h-3.75c-.96,0-1.73-.78-1.73-1.73v-8.24c0-.96.78-1.73,1.73-1.73Z"/>
        <rect class="cls-9" x="54.96" y="51.17" width="7.22" height="11.71" rx="1.73" ry="1.73"/>
        <rect class="cls-9" x="64.91" y="51.17" width="7.22" height="11.71" rx="1.73" ry="1.73"/>
        <path class="cls-9" d="M76.42,51.25h3.75c.96,0,1.73.78,1.73,1.73v8.24c0,.96-.78,1.73-1.73,1.73h-3.75c-.96,0-1.73-.78-1.73-1.73v-8.24c0-.96.78-1.73,1.73-1.73Z"/>
        <path class="cls-9" d="M86.36,51.25h3.75c.96,0,1.73.78,1.73,1.73v8.24c0,.96-.78,1.73-1.73,1.73h-3.75c-.96,0-1.73-.78-1.73-1.73v-8.24c0-.96.78-1.73,1.73-1.73Z"/>
        <path class="cls-9" d="M96.47,51.25h3.75c.96,0,1.73.78,1.73,1.73v8.24c0,.96-.78,1.73-1.73,1.73h-3.75c-.96,0-1.73-.78-1.73-1.73v-8.24c0-.96.78-1.73,1.73-1.73Z"/>
        <path class="cls-9" d="M7.37,51.17h3.75c.96,0,1.73.78,1.73,1.73v8.24c0,.96-.78,1.73-1.73,1.73h-3.75c-.96,0-1.73-.78-1.73-1.73v-8.24c0-.96.78-1.73,1.73-1.73Z"/>
        <rect class="cls-9" x="15.95" y="65.44" width="7.22" height="11.71" rx="1.73" ry="1.73"/>
        <path class="cls-9" d="M27.63,65.44h3.75c.96,0,1.73.78,1.73,1.73v8.24c0,.96-.78,1.73-1.73,1.73h-3.75c-.96,0-1.73-.78-1.73-1.73v-8.24c0-.96.78-1.73,1.73-1.73Z"/>
        <path class="cls-9" d="M37.41,65.04h3.75c.96,0,1.73.78,1.73,1.73v8.24c0,.96-.78,1.73-1.73,1.73h-3.75c-.96,0-1.73-.78-1.73-1.73v-8.24c0-.96.78-1.73,1.73-1.73Z"/>
        <path class="cls-9" d="M47.35,65.04h3.75c.96,0,1.73.78,1.73,1.73v8.24c0,.96-.78,1.73-1.73,1.73h-3.75c-.96,0-1.73-.78-1.73-1.73v-8.24c0-.96.78-1.73,1.73-1.73Z"/>
        <path class="cls-9" d="M56.98,65.24h3.75c.96,0,1.73.78,1.73,1.73v8.24c0,.96-.78,1.73-1.73,1.73h-3.75c-.96,0-1.73-.78-1.73-1.73v-8.24c0-.96.78-1.73,1.73-1.73Z"/>
        <path class="cls-9" d="M66.92,65.24h3.75c.96,0,1.73.78,1.73,1.73v8.24c0,.96-.78,1.73-1.73,1.73h-3.75c-.96,0-1.73-.78-1.73-1.73v-8.25c0-.96.78-1.73,1.73-1.73Z"/>
        <path class="cls-9" d="M76.7,65.32h3.75c.96,0,1.73.78,1.73,1.73v8.24c0,.96-.78,1.73-1.73,1.73h-3.75c-.96,0-1.73-.78-1.73-1.73v-8.24c0-.96.78-1.73,1.73-1.73Z"/>
        <path class="cls-9" d="M86.65,65.32h3.75c.96,0,1.73.78,1.73,1.73v8.24c0,.96-.78,1.73-1.73,1.73h-3.75c-.96,0-1.73-.78-1.73-1.73v-8.24c0-.96.78-1.73,1.73-1.73Z"/>
        <path class="cls-9" d="M96.75,65.32h3.75c.96,0,1.73.78,1.73,1.73v8.24c0,.96-.78,1.73-1.73,1.73h-3.75c-.96,0-1.73-.78-1.73-1.73v-8.24c0-.96.78-1.73,1.73-1.73Z"/>
        <path class="cls-9" d="M7.65,65.24h3.75c.96,0,1.73.78,1.73,1.73v8.24c0,.96-.78,1.73-1.73,1.73h-3.75c-.96,0-1.73-.78-1.73-1.73v-8.24c0-.96.78-1.73,1.73-1.73Z"/>
        <path class="cls-9" d="M17.69,79.03h3.75c.96,0,1.73.78,1.73,1.73v8.24c0,.96-.78,1.73-1.73,1.73h-3.75c-.96,0-1.73-.78-1.73-1.73v-8.24c0-.96.78-1.73,1.73-1.73Z"/>
        <path class="cls-9" d="M27.63,79.03h3.75c.96,0,1.73.78,1.73,1.73v8.24c0,.96-.78,1.73-1.73,1.73h-3.75c-.96,0-1.73-.78-1.73-1.73v-8.24c0-.96.78-1.73,1.73-1.73Z"/>
        <path class="cls-9" d="M37.41,78.63h3.75c.96,0,1.73.78,1.73,1.73v8.24c0,.96-.78,1.73-1.73,1.73h-3.75c-.96,0-1.73-.78-1.73-1.73v-8.24c0-.96.78-1.73,1.73-1.73Z"/>
        <path class="cls-9" d="M47.35,78.63h3.75c.96,0,1.73.78,1.73,1.73v8.24c0,.96-.78,1.73-1.73,1.73h-3.75c-.96,0-1.73-.78-1.73-1.73v-8.24c0-.96.78-1.73,1.73-1.73Z"/>
        <path class="cls-9" d="M56.98,78.83h3.75c.96,0,1.73.78,1.73,1.73v8.24c0,.96-.78,1.73-1.73,1.73h-3.75c-.96,0-1.73-.78-1.73-1.73v-8.24c0-.96.78-1.73,1.73-1.73Z"/>
        <path class="cls-9" d="M66.92,78.83h3.75c.96,0,1.73.78,1.73,1.73v8.24c0,.96-.78,1.73-1.73,1.73h-3.75c-.96,0-1.73-.78-1.73-1.73v-8.24c0-.96.78-1.73,1.73-1.73Z"/>
        <path class="cls-9" d="M76.7,78.91h3.75c.96,0,1.73.78,1.73,1.73v8.24c0,.96-.78,1.73-1.73,1.73h-3.75c-.96,0-1.73-.78-1.73-1.73v-8.24c0-.96.78-1.73,1.73-1.73Z"/>
        <path class="cls-9" d="M86.65,78.91h3.75c.96,0,1.73.78,1.73,1.73v8.24c0,.96-.78,1.73-1.73,1.73h-3.75c-.96,0-1.73-.78-1.73-1.73v-8.24c0-.96.78-1.73,1.73-1.73Z"/>
        <path class="cls-9" d="M96.75,78.91h3.75c.96,0,1.73.78,1.73,1.73v8.24c0,.96-.78,1.73-1.73,1.73h-3.75c-.96,0-1.73-.78-1.73-1.73v-8.25c0-.96.78-1.73,1.73-1.73Z"/>
        <path class="cls-9" d="M7.65,78.83h3.75c.96,0,1.73.78,1.73,1.73v8.24c0,.96-.78,1.73-1.73,1.73h-3.75c-.96,0-1.73-.78-1.73-1.73v-8.24c0-.96.78-1.73,1.73-1.73Z"/>
      </g>
      <path class="cls-2" d="M38.97,19.74c1.84,2.03,0,6.7-4.1,10.42-4.11,3.72-8.93,5.09-10.78,3.06-1.84-2.03,0-6.7,4.1-10.42,4.11-3.72,8.93-5.09,10.77-3.06Z"/>
      <path class="cls-3" d="M88.41,43.37c4.52,17.65-5.73,35.53-22.91,39.93-17.18,4.4-34.77-6.34-39.29-23.99-4.52-17.65,17.82,11.63,35,7.22,17.18-4.4,22.68-40.81,27.21-23.17Z"/>
      <g>
        <path class="cls-5" d="M52.68,49.55s0,0,0,0c-.06-.01-.24-.21-.24-.24-.11.53.1.4.24.24t0,0h0ZM52.68,49.55c.11-.12.16-.25,0-.11,0,0,0,.09,0,.11ZM31.35,48.71c-.37.06-.22.12,0,0h0ZM31.36,48.71s.03,0,.05-.01c0,0,0,0,0-.01.04-.03.09-.06.13-.11-.07.07-.38-.24-.13.11-.01.01-.03.02-.04.03ZM19.25,82.01c.1-.31.2-.61.79-.43.01-.71-.64-.28-.73-.37-.07-.65.5-.08.61-.37.12-.41-.38-.19-.61-.24.12-.2.52-.13.73-.25-.04-.23-.75-.65-.61,0-.49-.67.46-.54.73-.61-.21.01-.31-.4-.85-.37-.02-.35.75.1.73-.24-.21-.61-.55-.17-.86,0,.02-.43.46-.44.73-.61.12-.41-.38-.19-.61-.25-.35-.21.62-.1.85-.12.09-.66-.03-1.11-.73-.98.14-.29.62-.32.73,0,.11-1.19-.05-2.13,0-3.05.03-.41.09-.69.12-.86.19-.92-.01-2.55.08-3.96.01.02.03.04.04.05.03-.14.01-.33,0-.53.03-.24.07-.48.13-.69-.17.1-.15.4-.13.69-.02.15-.03.31-.04.48-.38-.47.13-1.09.17-1.54.13-1.58-.54-3.45-.12-5.37.09-.41.1-.01.25-.25.04-1.8-.02-4.24-.12-5.75-.04-.62-.12-1.55-.13-2.34h0c.02-.1.02-.22,0-.34,0,0,0,0,0,0,0-.42.04-.77.13-.98.04-.1.19.36.12.37.11-.01.14-.81.85-.49v34.47h2.32v-27.38c0-3.07-.34-6.2,0-9.04.03-.24-.03-.39.24-.37-.36-.16-.09-.96-.12-1.22,1.6.04,3.49.64,4.64.37.04-.32-.69.11-.49-.37.53,0,1.1.04,1.47-.12-.39-.39-.54-.78-1.1-.73-.27-.02-.06.43-.12.61-.35-.02-.23-.51-.25-.85,3.34-.11,6.35-1.33,9.41-.37-.15.89-.07,1.27-.12,2.2-1.5.37-3.58.16-5.01.61.02,1.41.63,2.01.49,3.3,1.63-.17,3.27-.32,4.89-.49v-3.42c1.82.14,3.5.41,5.26.61-.13.82.05,1.33.61,1.47-.06,3.53.31,6.97,0,10.39,2,.08,4.55,1,6.11.37.21-.57-.57-.16-.37-.73-.13-.5.13-.6.37-.73-.12-.33-.56-.34-.37-.98-.19-.48.32-.25.37-.49-.04-.37-.58-.23-.37-.85-.23-.56.49-.17.37-.61.11-.57-.4.08-.37-.25v-.73c-.2-.48.53-.04.49-.37.12-.59-.55.06-.49-.25-.25-3.99-.02-8.68-.12-12.47.6.03.92-.21,1.59-.12.2-.49-.35-2.46.24-2.94.6.02.4,1.35.37,1.71-.05.47-.23.87-.25,1.1.4,0,.61-.21,1.1-.12-.1-.48-.1-.37,0-.86-.53-.08.03.93-.61.74-.43.07.05-.77-.12-1.22v-1.47c.3,0,.69-.09.64.25-.02.04-.03.08-.03.12.01-.04.02-.08.03-.12.2-.39,1.44-.69,1.44,0,.28-.05-.06-.72.49-.49.64.05-.2.84.24,1.1.36-.13-.11-1.09.25-1.22.32-.03.61-.04.49.37.18-.18.19-.55.61-.49.31.33-.07.64,0,1.1.5.05.14-.76.25-1.1.51-.11.48-.08.73.25.24-.42-.42-.54-.12-.61-.63-.11-.61.39-1.1,0-.39-.14-.03.25-.2.35.06-.06-1.17-.1-.77-.11-.78.01-1.65-.16-2.2.49-.52-.49-.7.11-1.46-.12-.19.06-.01.13.12.12-.03.35-.91-.4-.85.24-.56-.19.18-.44.24-.73,1.03-4.43,3.29-7.63,4.16-12.22,2.77-.45,5.77-.67,8.43-1.22h.86v.12c.49.24,1.5-.04,1.96.24.25,3.3,1.51,5.78,2.44,8.56.52,1.55.99,3.09,1.47,4.77.08.29-.03.56.12.86.11.22.27.03.37.61.25,1.44,0,3.23,0,4.89v31.17c0,.33-.04.81,0,1.22.02.16-.2.87.37.73.37-5.46-.12-11.78.24-17.24,5.57-.85,10.72-.03,16.14.49v28.24h-9.66c-.29-8.55.39-18.31,0-27.14-.01-.33.31-1.24-.37-1.34-.46.37-.24,1.13-.25,1.59-.16,8.68.12,18.05,0,26.89H15.4v-14.42c.17-.04.1-.31.12-.49.32.33.42.88.73,1.22.24-.05.22-.35.61-.25-.03.37-.34.06-.49.49.78.28-.11.16.49.73.28-.09.05-.69.12-.98.26.14.29.52.86.37-.15-.22-.71-.02-.49-.61.47-.38.75.46.73.61-.02.27-.52.05-.73.12-.09.45.43.3.61.49.05.29-.56-.07-.37.37.1.27.76-.02.61.49-.16-.04-.19-.21-.37-.24-.29.03-.07.54.12.49.05.29-.56-.07-.37.37.7.65.65-1,1.22-.49.26.41-.55.02-.61.61.41.04,1.06-.16.98.37-.65-.36.21.43.06,1.16ZM19.21,82.14s.02-.04.02-.06c0,.02-.01.04-.02.06ZM59.77,40.88h.37c-.02-.18.04-.45-.12-.49-.05.19-.39.1-.25.49ZM59.77,42.35c.02-.14.19-.13.37-.12-.02-.14.02-.35-.12-.37.06.24-.67.28-.25.49ZM59.77,43.08c.02-.14.19-.13.37-.12-.02-.14.02-.34-.12-.36v.24c-.17,0-.27-.06-.37-.12v.24c0,.08.02.15.12.12ZM60.01,44.18c-.24.04-.24-.16-.37-.24.07.18-.14.63.12.61.03-.17.2-.21.25-.37ZM59.89,53.71c.02-.31-.19-.38-.37-.49.07.18-.14.63.12.61.03-.1.1-.14.24-.12ZM59.77,43.81c0-.07.02-.15.12-.12-.01-.15-.04-.29-.24-.24.02.14-.02.34.12.37ZM59.64,48.34c.11.34-.25,1.15.24,1.1-.18-.54.17-.88-.24-1.1ZM59.64,46.75c.05.23-.17.74.24.61-.07-.22-.06-.51-.24-.61ZM59.77,48.09c.19-.18.09-.5-.12-.61.07.18-.14.63.12.61ZM59.89,46.63c-.27-.72.26-1.52-.24-1.96.14.59-.29,1.76.24,1.96ZM59.77,52.37c.13-.4.26-1.08-.12-1.34.05.51-.41,1.04.12,1.34ZM59.52,62.39c.01-.2.31-.1.24-.37-.25-.11-.46.4-.24.37ZM59.4,63.86c.38.06.39-.26.37-.61h-.37v.61ZM59.77,59.46c.03-.28-.03-.46-.24-.49.03.22-.12.61.24.49ZM59.77,64.47c.02-.3-.27-.3-.37-.49.07.18-.14.63.12.61.03-.09.1-.14.24-.12ZM59.77,60.19v-.25h-.24v.25h.24ZM59.64,49.8c-.1.74.56.08,0,0h0ZM59.52,50.9c.55.21.44-.65.12-.61.1.35-.17.32-.12.61ZM59.77,56.65c-.17-.61.22-1.03-.24-1.34.12.41-.27,1.33.24,1.34ZM59.64,54.57c.19-.18.09-.5-.12-.61.07.18-.14.63.12.61ZM59.64,58.85c.17-.16.19-.6-.12-.61.07.18-.14.63.12.61ZM59.64,58.11c.09-.43.24-1.1-.12-1.34.08.41-.16,1.13.12,1.34ZM59.64,65.94c.03-.28-.03-.46-.25-.49.03.22-.12.61.25.49ZM59.64,66.67c.02-.3.02-.59-.25-.61.06.23-.17.74.25.61ZM59.64,67.4c.03-.28-.03-.46-.25-.49.03.21-.12.61.25.49ZM59.64,55.18c.01-.31.23-.38-.12-.49.02.18-.04.45.12.49ZM59.52,60.56c-.1.74.56.08,0,0h0ZM59.52,61.29c-.13.71.53.05,0,0h0ZM59.52,65.33c.17-.16.19-.6-.12-.61.07.18-.14.63.12.61ZM56.47,52.12c.16-.63-.6-.57-.49,0h.49ZM56.1,45.04c.32.04.4-.17.37-.49h-.37v.49ZM56.1,49.31c.32.04.4-.17.37-.49h-.37v.49ZM56.47,46.38c.02-.27-.1-.39-.37-.37v.37h.37ZM56.47,50.66v-.37c-.21,0-.38.03-.49.12-.12.37.27.22.49.25ZM56.47,47.85v-.49h-.37c-.04.32-.04.61.37.49ZM56.22,59.34c0-.16.16-.17.12-.37h-.36v.37h.24ZM56.34,57.87v-.49h-.36c-.04.32-.04.61.36.49ZM56.34,56.4v-.37h-.36v.37h.36ZM56.34,54.94v-.37h-.36v.37h.36ZM56.34,53.59v-.49h-.36c-.04.32-.04.61.36.49ZM56.1,65.08c0-.16.16-.17.12-.37h-.36v.37h.25ZM56.1,63.62c0-.16.16-.17.12-.37h-.36v.37h.25ZM56.22,67.89v-.37h-.36v.37h.36ZM56.22,66.42v-.37h-.36v.37h.36ZM56.22,62.15v-.37h-.36v.37h.36ZM56.22,60.68v-.24c-.22-.41-.6.37,0,.24ZM55.86,69.36c.25.11.55-.32.25-.37-.03.15-.14.07-.25,0v.37ZM55.73,43.08c.44.03.28-1.18.12-1.34-.16.56-.05.66-.12,1.34ZM55.24,52.25c.38.06.54-.1.49-.49-.38-.06-.54.11-.49.49ZM55.73,46.5c-.03-.22.12-.61-.25-.49-.04.16-.17.23-.12.49h.37ZM55.73,50.78c.03-.5-.15-.49-.49-.37-.04.32.17.4.49.37ZM55.73,49.31v-.37h-.37v.37h.37ZM55.73,47.97v-.49h-.37c-.04.32-.04.61.37.49ZM55.37,44.67c-.23.41.44.51.49.24-.19-.05-.11-.38-.49-.24ZM55.37,57.99c.05-.19.38-.1.24-.49h-.37c.02.18-.04.45.12.49ZM55.61,60.8c.16-.63-.6-.57-.49,0h.49ZM55.61,59.34v-.37h-.37v.37h.37ZM55.61,56.53v-.49h-.37c-.04.32-.04.61.37.49ZM55.24,55.06h.37c-.02-.18.04-.45-.12-.49-.05.19-.38.1-.24.49ZM55.49,66.55c.04-.28-.03-.46-.24-.49-.04.17-.17.23-.12.49h.37ZM55.49,65.08v-.37h-.37v.37h.37ZM55.49,63.62v-.37h-.37v.37h.37ZM55.49,62.15v-.37h-.24c0,.16-.16.17-.12.37h.37ZM55.61,43.33c-.73.28-.03-.87-.61-.73,0,.32.05.7-.12.86.22-.07.72.15.73-.12ZM55.24,53.59c.28.04.46-.03.49-.24-.16-.04-.23-.17-.49-.12v.37ZM55.37,69.36c0-.12.1-.15.12-.24-.16,0-.17-.16-.37-.12v.37h.25ZM55,42.47c.37.19.32-.63.12-.61-.1.14-.16.33-.12.61ZM55.12,41.12c-.38.73.45.6,0,0h0ZM54.51,51.88c-.26.45.62.55.49.12-.02-.18-.29-.11-.49-.12ZM54.75,50.9c.01-.19.31-.09.24-.37-.03-.29-.54-.07-.49.12.16,0,.11.21.24.24ZM55,45.16c-.03-.22.12-.61-.24-.49-.04.16-.17.23-.12.49h.37ZM55,49.44c-.03-.21.12-.61-.24-.49-.04.17-.17.23-.12.49h.37ZM55,47.97v-.37h-.37v.37h.37ZM55,46.63v-.49h-.37c-.04.32-.04.61.37.49ZM54.51,59.46c.32.04.4-.17.37-.49h-.37v.49ZM54.87,60.8c.1-.47-.58-.47-.49,0h.49ZM54.87,56.53v-.37h-.37v.37h.37ZM54.87,55.18v-.49h-.37c-.03.32-.04.61.37.49ZM54.87,53.71v-.37h-.37v.37h.37ZM54.87,57.99c-.02-.18.04-.45-.12-.49-.05.19-.38.1-.24.49h.37ZM54.75,66.55v-.37h-.37v.37h.37ZM54.75,65.2v-.49h-.24v.49h.24ZM54.75,63.74v-.37c-.14.02-.35-.02-.37.12.19,0,.1.31.37.25ZM54.75,62.27v-.37h-.37v.37h.37ZM54.63,67.89c.11-.12.17-.25,0-.12,0,0,0,.09,0,.12,0,0,0,0,0,0-.06-.01-.24-.22-.24-.24-.11.52.1.4.24.24h0ZM53.65,43.57h.86c-.27-.25.32-.78-.25-.85.09.58-.26.64-.61.49.07-.11.29-.45-.12-.37-.09.37.13.45.12.73ZM54.39,41.98c-.38.73.45.6,0,0h0ZM54.02,46.75c.05-.19.38-.1.24-.49h-.37c.02.18-.04.45.12.49ZM54.26,48.09c.11-.39-.19-.38-.37-.49v.49h.37ZM53.9,45.28c.32.04.4-.17.37-.49h-.37v.49ZM53.9,49.56c.32.04.4-.17.37-.49h-.37v.49ZM54.26,50.9v-.37h-.37v.37h.37ZM53.9,58.11c.05-.19.38-.1.25-.49h-.37c.02.18-.04.45.12.49ZM53.78,53.84c.32.04.4-.17.37-.49-.32-.04-.4.17-.37.49ZM54.15,59.46v-.37h-.37v.37h.37ZM54.15,56.65v-.49h-.37c-.03.32-.04.61.37.49ZM54.15,55.18v-.37h-.37v.37h.37ZM53.9,52.37c.42.09.48-.47.12-.49-.04.17-.17.23-.12.49ZM53.78,62.27c.3.19.36-.42.12-.37,0,.08-.02.15-.12.12v.24ZM53.78,60.93c.46.05.38-.37.12-.49-.04.16-.17.23-.12.49ZM53.53,42.59c.3.19.36-.42.12-.37,0,.08-.02.15-.12.12v.25ZM53.53,52.37v-.37h-.37c0,.17-.06.27-.12.37.24.2.16,0,.49,0ZM53.53,49.56v-.37h-.37v.37h.37ZM53.53,46.75v-.37h-.37v.37h.37ZM53.41,60.93v-.37h-.37v.37h.37ZM53.41,58.11v-.37h-.37v.37h.37ZM53.04,55.3h.37c-.02-.18.04-.45-.12-.49-.06.19-.39.1-.25.49ZM52.8,52.12h-.37c-.14.25.19.58.25.25-.08,0-.15-.02-.12-.12.09-.03.24,0,.25-.12ZM52.43,46.87c.31.13.54-.41.25-.49-.05.19-.39.11-.25.49ZM52.68,58.11v-.24h-.37v.24h.37ZM52.43,55.3c.51.19.13-.75,0-.24.15.02.08.14,0,.24ZM52.31,61.05c.25.11.55-.32.25-.37-.02.15-.14.08-.25,0v.37ZM52.31,41.98c.02-.09-.04-.71-.12-.37-.11.47.07.61.12.37ZM51.7,45.52c.38.06.55-.1.49-.49-.38-.06-.54.11-.49.49ZM51.82,49.8c.05-.19.38-.11.25-.49h-.37c.02.18-.04.45.12.49ZM51.7,52.62c.32.04.4-.17.37-.49h-.37v.49ZM52.07,53.96v-.37h-.37v.37h.37ZM52.07,46.87v-.37h-.37v.37h.37ZM52.07,48.34c-.02-.18.04-.45-.12-.49-.05.19-.39.11-.24.49h.37ZM51.7,51.15h.37c-.02-.18.04-.45-.12-.49-.05.19-.39.1-.24.49ZM51.58,56.89c.32.04.4-.17.37-.49h-.37v.49ZM51.58,59.7c.32.04.4-.17.37-.49h-.37v.49ZM51.94,55.42c.03-.28-.03-.46-.24-.49-.04.17-.17.23-.12.49h.37ZM51.94,62.51v-.37h-.37v.37h.37ZM51.94,61.05v-.37h-.37v.37h.37ZM51.94,58.24v-.37h-.37v.37h.37ZM50.97,45.16c-.26.45.62.55.49.12-.02-.18-.3-.11-.49-.12ZM51.33,46.99c-.03-.22.12-.61-.25-.49-.04.17-.17.23-.12.49h.37ZM51.33,55.42v-.37c-.21-.01-.38.03-.49.12-.12.37.27.21.49.24ZM51.33,54.08v-.37h-.37c0,.17-.06.27-.12.37h.49ZM51.33,52.62v-.37h-.37v.37h.37ZM51.33,51.27v-.49h-.37c-.03.32-.04.61.37.49ZM51.33,49.8v-.37h-.37v.37h.37ZM51.33,48.46v-.49h-.37c-.03.32-.04.61.37.49ZM51.21,58.36c-.03-.22.12-.61-.25-.49-.04.16-.17.23-.12.49h.37ZM51.21,61.17c-.03-.22.12-.61-.25-.49-.04.17-.17.24-.12.49h.37ZM51.21,62.51v-.37h-.37v.37h.37ZM51.21,59.7v-.37h-.37v.37h.37ZM51.21,56.89v-.37h-.37v.37h.37ZM50.23,47.11c.38.06.54-.11.49-.49-.38-.06-.55.1-.49.49ZM50.72,45.65c-.02-.18.04-.45-.12-.49-.05.19-.38.1-.25.49h.37ZM50.23,57.01c.32.04.4-.17.37-.49-.21-.01-.38.02-.49.12,0,.17.06.27.12.37ZM50.48,55.42c.07,0,.15-.02.12-.12-.05-.14-.59-.14-.25,0,.28-.06-.15.48.12.12ZM50.6,49.93c-.03-.22.12-.61-.25-.49-.04.17-.17.23-.12.49h.37ZM50.6,52.74c-.03-.21.12-.61-.25-.49-.04.17-.17.23-.12.49h.37ZM50.6,54.08v-.37h-.37v.37h.37ZM50.6,51.27v-.37h-.37v.37h.37ZM50.6,48.46v-.37h-.37v.37h.37ZM50.23,61.29c.05-.19.38-.1.24-.49h-.37c.02.18-.04.45.12.49ZM50.48,62.64c.03-.28-.03-.46-.24-.49-.04.17-.18.23-.12.49h.37ZM50.48,58.36v-.37h-.37v.37h.37ZM50.48,59.83c-.03-.22.12-.61-.24-.49-.04.17-.18.24-.12.49h.37ZM49.99,48.58v-.49c-.38-.06-.55.11-.49.49h.49ZM49.99,47.11v-.37h-.37v.37h.37ZM49.99,45.77v-.49h-.37c-.03.32-.04.61.37.49ZM49.99,49.56c-.32-.03-.53.05-.49.37.39.11.38-.19.49-.37ZM49.62,52.86c.05-.19.39-.11.24-.49h-.37c.02.18-.04.45.12.49ZM49.86,55.55v-.37h-.37v.37h.37ZM49.86,54.2v-.37h-.37v.37h.37ZM49.86,51.39c-.02-.18.04-.45-.12-.49-.05.19-.38.1-.24.49h.37ZM41.92,90.38c.29-8.36.04-16.5.12-25.06-3.14.04-5.95.4-8.92.61.38.66,1.28-.06,1.34.12-.01-.02-.19.12,0,.12,2.38-.25,5.12-.48,7.09-.49.09.54-.09.81-.25,1.1.47.25.23.85.25,1.22.19,6.4-.03,14.05-.12,19.68-.02.93-.35,2.5.49,2.69ZM41.92,64.71c-.04-.21-.38.11-.49-.25.07-.36.12-1.22-.12-1.22-.07.18.14.63-.12.61-.6.23-.33-.4-.73-.37-.07.18.14.63-.12.61.03-.28-.03-.46-.25-.49-.12.52-.36.54,0,.98-.31-.16-.38.48-.49.12-.04-.45.14-1.76-.25-1.47.46.17-.36.02-.25.25.2-.09.2.58,0,.49.19-.43-.41-.07-.37-.37.16.06,0-.56-.12-.61-.18.5.03,1.32-.37,1.83-.18-.27-.3.15-.37-.12.26.07.11-1.06,0-.61,0,.33.07.72-.24.73,0-.46.14-.35,0-.73-.46.21-.19-.07-.61-.12-.2.22.04,1.5-.49.98.59-.17-.26-.06-.37.12-.2-.21-.1-.72-.12-1.1-.68.09-.06,1.25-.49,1.34-.37-.35-.24-.35-.61,0-.08-.33.16-.97-.12-1.1-.22.29-.09.94-.24.98-.12,0-.14.1-.24.12-.21-.16,0-.73-.37-.73.02.65-.09.62-.49.98,2.27-.1,4.86-.26,6.97-.49.51-.06,1.16.17,1.47-.37ZM41.68,62.51c.27-.05.05-.6.12-.85-.35.39-1.76-.3-1.71.49.46.18.24-.34.61-.25.15.6-.6.3-.61.73.32-.12.75-.14,1.22-.12.1-.46-.59-.14-.49-.61.36-.06,1.22,0,.73.37.04-.2-.17-.33-.25-.12.29-.05-.07.56.37.37ZM41.43,74.86v-.25h-.25v.25h.25ZM41.43,73.52v-.25h-.25v.25h.25ZM41.43,72.17v-.25h-.25v.25h.25ZM41.06,90.99c.53-.02.22-.21.25-.61-.38-.17-1.29-.05-.98.37.01-.31.41-.24.73-.24.01.33-.2.25,0,.49ZM41.31,81.58v-.24h-.25v.24h.25ZM41.19,75.96c-.58.66.59-.22,0-.12,0,0,0,.11,0,.12ZM41.06,80.24c.3.19.36-.41.12-.37,0,.08-.02.15-.12.12v.24ZM41.06,72.17v-.25h-.24v.25h.24ZM41.06,70.83v-.25h-.24v.25h.24ZM40.94,78.89v-.24h-.24v.24h.24ZM40.82,77.3c-.58.66.59-.22,0-.12,0,0,0,.11,0,.12ZM40.7,80.24c.3.19.36-.41.12-.37,0,.08-.02.15-.12.12v.24ZM40.7,81.58c.3.19.36-.41.12-.37,0,.07-.02.14-.12.12v.24ZM40.58,86.96c.3.19.36-.42.12-.37,0,.07-.02.14-.12.12v.24ZM40.33,72.3c.27.02.39-.1.37-.37-.33-.08-.24.25-.37.37ZM40.58,69.6c0-.08.02-.14.12-.12-.01-.15-.04-.29-.25-.25.02.14-.02.35.12.37ZM40.58,70.95c0-.08.02-.14.12-.12-.01-.15-.04-.29-.25-.25.02.14-.02.35.12.37ZM40.58,68.26c.02-.15.22-.28,0-.37-.02.14-.22.28,0,.37ZM40.58,66.55c-.37.41.45.37,0,0h0ZM40.58,80.24v-.24h-.24v.24h.24ZM40.58,78.89v-.24h-.24v.24h.24ZM40.58,77.55v-.24h-.24v.24h.24ZM40.58,76.21v-.25h-.24v.25h.24ZM40.45,88.31v-.25h-.24v.25h.24ZM40.45,86.96v-.24h-.24v.24h.24ZM40.45,85.62v-.24h-.24v.24h.24ZM40.21,66.67c-.58.66.59-.23,0-.12-.01,0,0,.11,0,.12ZM40.21,69.6c0-.08.02-.14.12-.12-.02-.15-.04-.29-.25-.25.02.14-.02.35.12.37ZM40.09,68.26c.3.19.36-.42.12-.37,0,.07-.02.14-.12.12v.25ZM40.09,72.05c-.58.66.59-.23,0-.12,0,0,0,.11,0,.12ZM40.09,77.67c0-.07.02-.14.12-.12-.02-.15-.04-.29-.25-.24.02.14-.02.35.12.37ZM40.09,79.02c0-.08.02-.14.12-.12-.02-.15-.04-.29-.25-.24.02.14-.02.35.12.37ZM39.97,73.64c.3.19.36-.41.12-.37,0,.07-.02.15-.12.12v.24ZM40.09,74.98c.02-.14.22-.28,0-.37-.02.14-.22.28,0,.37ZM39.97,76.33c.36.18.36-.54,0-.37v.37ZM40.09,88.31v-.25h-.25v.25h.25ZM40.09,84.27v-.24h-.25v.24h.25ZM39.97,85.74c0-.08.02-.15.12-.12-.01-.15-.04-.29-.25-.24.02.14-.02.34.12.37ZM39.97,68.26v-.25h-.24v.25h.24ZM39.97,66.92v-.25h-.24v.25h.24ZM39.72,80.36c0-.16.16-.17.12-.37h-.24c0,.16-.16.17-.12.37h.25ZM39.72,77.67c0-.07.02-.14.12-.12-.01-.15-.04-.29-.24-.24.02.14-.02.35.12.37ZM39.72,69.24c-.13.71.53.05,0,0h0ZM39.6,72.3c.3.19.36-.42.12-.37,0,.07-.02.15-.12.12v.25ZM39.6,73.64c.3.19.36-.41.12-.37,0,.07-.02.15-.12.12v.24ZM39.72,74.98c.02-.14.22-.28,0-.37-.02.14-.22.28,0,.37ZM39.6,75.96,39.72,79.02c.11-.02.06-.68-.12-.24-.03.07.05.25.12.24ZM39.72,85.62v-.24h-.25v.24h.25ZM39.6,87.08c0-.07.02-.15.12-.12-.02-.15-.04-.29-.25-.24.02.14-.02.34.12.37ZM39.6,81.34c0,.07-.02.14-.12.12M39.6,83.05c.02-.14.22-.28,0-.37-.02.14-.22.28,0,.37ZM39.48,72.3v-.25h-.25v.25h.25ZM39.35,76.33c0-.07.02-.14.12-.12-.01-.15-.04-.29-.25-.25.02.14-.02.35.12.37ZM39.35,73.27c0,.07-.02.15-.12.12M39.35,74.98c.02-.14.22-.28,0-.37-.02.14-.22.28,0,.37ZM39.23,77.43c-.58.66.59-.23,0-.12,0,0,0,.11,0,.12ZM39.23,83.05c0-.07.02-.15.12-.12-.01-.15-.04-.29-.25-.24.02.14-.02.35.12.37ZM39.23,84.39c0-.08.02-.15.12-.12-.01-.15-.04-.29-.25-.24.02.14-.02.35.12.37ZM39.23,85.74c0-.08.02-.15.12-.12-.01-.15-.04-.29-.25-.24.02.14-.02.34.12.37ZM39.11,80.36c.3.19.36-.41.12-.37,0,.07-.02.14-.12.12v.24ZM39.11,81.71c.3.19.36-.42.12-.37,0,.07-.02.14-.12.12v.24ZM39.23,91.12c0-.19.02-.42-.24-.37v.24c.12,0,.14.1.24.12ZM39.11,73.64v-.24h-.24v.24h.24ZM39.11,72.3v-.25h-.24v.25h.24ZM39.11,70.95v-.24h-.24v.24h.24ZM38.99,68.01c-.37.41.45.37,0,0h0ZM38.86,83.05c0-.07.02-.15.12-.12-.02-.15-.04-.29-.25-.24.02.14-.02.35.12.37ZM38.86,84.39c0-.08.02-.15.12-.12-.02-.15-.04-.29-.25-.24.02.14-.02.35.12.37ZM38.86,74.62c-.13.71.53.05,0,0h0ZM38.86,75.96c-.13.71.53.05,0,0h0ZM38.74,77.67c.3.19.36-.42.12-.37,0,.08-.02.14-.12.12v.24ZM38.74,79.02c.3.19.36-.41.12-.37,0,.07-.02.14-.12.12v.24ZM38.74,80.36c.3.19.36-.41.12-.37,0,.07-.02.14-.12.12v.24ZM38.74,81.71c.3.19.36-.42.12-.37,0,.07-.02.14-.12.12v.24ZM38.86,90.99v-.24h-.24v.24h.24ZM38.74,85.49c-.58.67.59-.23,0-.12,0,0,0,.11,0,.12ZM38.74,72.3v-.25h-.24v.25h.24ZM38.74,74.74c-.21,0-.31.09-.37.24.21,0,.31-.09.37-.24ZM38.5,68.38c.3.19.36-.42.12-.37,0,.08-.02.15-.12.12v.24ZM38.5,69.72c.3.19.36-.41.12-.37,0,.07-.02.15-.12.12v.24ZM38.62,71.07c.02-.14.22-.28,0-.37-.02.14-.22.28,0,.37ZM38.62,80.36v-.24h-.24v.24h.24ZM38.38,77.67c.3.19.36-.42.12-.37,0,.08-.02.14-.12.12v.24ZM38.38,84.15c-.58.67.59-.22,0-.12,0,0,0,.11,0,.12ZM38.38,88.43c0-.07.02-.15.12-.12-.01-.15-.04-.29-.24-.25.02.15-.02.35.12.37ZM38.38,82.68c-.13.71.53.05,0,0h0ZM38.26,85.74c.3.19.36-.41.12-.37,0,.07-.02.14-.12.12v.25ZM38.26,87.08c.3.19.36-.41.12-.37,0,.07-.02.14-.12.12v.25ZM38.26,66.79c-.58.66.59-.23,0-.12-.01,0,0,.12,0,.12ZM38.26,68.14c-.58.66.59-.23,0-.12-.01,0,0,.12,0,.12ZM38.26,80.36v-.24h-.25v.24h.25ZM38.26,79.02v-.24h-.25v.24h.25ZM38.26,77.67v-.24h-.25v.24h.25ZM38.26,81.46c-.21,0-.32.09-.37.24.21,0,.31-.09.37-.24ZM38.13,72.05c-.13.71.53.05,0,0h0ZM38.01,82.8c-.58.66.59-.23,0-.12,0,0,0,.11,0,.12ZM38.01,88.43c0-.07.02-.15.12-.12-.01-.15-.04-.29-.25-.25.02.15-.02.35.12.37ZM38.01,89.77c0-.07.02-.15.12-.12-.01-.15-.04-.29-.25-.25.02.15-.02.35.12.37ZM37.89,84.39c.3.19.36-.42.12-.37,0,.07-.02.14-.12.12v.25ZM37.89,85.74c.3.19.36-.41.12-.37,0,.07-.02.14-.12.12v.25ZM37.89,87.08c.3.19.36-.41.12-.37,0,.07-.02.14-.12.12v.25ZM37.89,71.07c0-.07.02-.14.12-.12-.01-.15-.04-.29-.24-.24.02.14-.02.35.12.37ZM38.01,72.05c-.33-.08-.24.25-.37.37.33.08.24-.25.37-.37ZM37.77,68.38c.3.19.36-.42.12-.37,0,.08-.02.15-.12.12v.24ZM37.77,69.72c.3.19.36-.41.12-.37,0,.07-.02.15-.12.12v.24ZM37.89,80.36v-.24h-.24v.24h.24ZM37.89,79.02v-.24h-.24v.24h.24ZM37.89,77.67v-.24h-.24v.24h.24ZM37.77,76.45c0-.07.02-.14.12-.12-.01-.15-.04-.29-.24-.24.02.14-.02.34.12.37ZM37.64,73.76c.3.19.36-.42.12-.37,0,.07-.02.14-.12.12v.24ZM37.64,75.1c.3.19.36-.41.12-.37,0,.07-.02.14-.12.12v.24ZM37.52,84.39c.3.19.36-.42.12-.37,0,.07-.02.14-.12.12v.25ZM37.52,85.74c.3.19.36-.41.12-.37,0,.07-.02.14-.12.12v.25ZM37.52,87.08c.35.18.35-.55,0-.37v.37ZM37.64,68.38v-.24h-.25v.24h.25ZM37.64,60.8c-.9.03-3.07-.15-3.55.49,1.25-.09,2.73.04,3.55-.49ZM37.52,79.02v-.24h-.25v.24h.25ZM37.52,62.88c0-.54-.6-.13-.98-.12-.85.03-1.99-.11-2.2.37.93-.21,2-.28,3.18-.25ZM37.4,72.17c-.58.66.59-.23,0-.12,0,0,0,.11,0,.12ZM37.4,77.79c0-.08.02-.14.12-.12-.02-.15-.04-.29-.25-.24.02.14-.02.35.12.37ZM37.4,70.71c-.13.71.53.05,0,0h0ZM37.64,58.85c-.53-.1-1.02.07-1.59.12-.84.07-1.85-.07-2.2.37.52.22,1.42-.03,2.2-.12.59-.06,1.39.21,1.59-.36ZM37.64,54.08c-1.29-.08-2.87.33-4.64.37.1.52,1.06.3,1.71.24.5-.04,1.14-.19,1.59-.24.5-.06,1.23.23,1.35-.37ZM37.28,75.1c.3.19.36-.41.12-.37,0,.07-.02.14-.12.12v.24ZM37.28,76.45c.3.19.36-.41.12-.37,0,.07-.02.14-.12.12v.24ZM37.4,87.08v-.25h-.25v.25h.25ZM37.4,85.74v-.25h-.25v.25h.25ZM37.4,84.39v-.25h-.25v.25h.25ZM37.64,59.83c-.47-.15-1.24.05-1.96.12-.63.07-1.45-.1-1.71.37.82-.06,3.27.09,3.67-.49ZM37.64,55.06c-.53-.22-1.23.04-1.96.12-.89.09-2.01-.1-2.45.49.56.08,1.14-.07,1.71-.12,1-.08,2.36,0,2.69-.49ZM37.28,69.72v-.24h-.24v.24h.24ZM37.15,68.5c0-.07.02-.14.12-.12-.01-.15-.04-.29-.24-.24.02.14-.02.35.12.37ZM37.64,57.01c-.62-.27-1.51.03-2.32.12-.64.07-1.48-.1-1.83.37.55.11,1.57-.07,2.08-.12.75-.08,1.71.08,2.08-.37ZM37.15,73.76v-.24h-.24v.24h.24ZM36.18,58.36c.52-.04,1.21-.02,1.47-.37-.58-.17-1.51-.08-2.32,0-.61.06-1.47.03-1.71.49.84,0,1.8-.07,2.57-.12ZM36.91,75.1c.3.19.36-.41.12-.37,0,.07-.02.14-.12.12v.24ZM36.3,62.15c.42-.05,1.03-.01,1.22-.37-.85-.12-2.55-.02-3.3.37.46.1,1.31.08,2.08,0ZM37.03,76.45c.02-.14.22-.28,0-.37-.02.14-.22.28,0,.37ZM36.91,77.43c-.13.71.53.05,0,0h0ZM37.64,56.04c-.48-.12-1.29-.07-1.96,0-.88.09-1.94.1-2.32.61.75-.02,1.61-.17,2.45-.24.63-.06,1.45.09,1.83-.37ZM36.79,88.18c-.58.66.59-.22,0-.12,0,0,0,.12,0,.12ZM36.79,68.5c.34-.58-.4-.3,0,0h0ZM36.79,76.45v-.24h-.25v.24h.25ZM36.79,73.76v-.24h-.25v.24h.25ZM36.54,75.1c.3.19.36-.41.12-.37,0,.07-.02.14-.12.12v.24ZM36.66,84.39v-.25h-.24v.25h.24ZM36.54,83.17c0-.07.02-.14.12-.12-.01-.15-.04-.29-.24-.25.02.14-.02.35.12.37ZM36.42,79.14c.3.19.36-.42.12-.37,0,.07-.02.14-.12.12v.25ZM36.42,80.48c.3.19.36-.42.12-.37,0,.07-.02.14-.12.12v.25ZM36.3,88.43c.3.19.36-.42.12-.37,0,.08-.02.15-.12.12v.25ZM36.3,89.77c.3.19.36-.42.12-.37,0,.08-.02.15-.12.12v.25ZM36.42,75.1v-.24h-.24v.24h.24ZM36.42,73.76v-.24h-.24M36.42,72.42v-.24h-.24v.24h.24ZM36.18,71.19c.3.19.36-.41.12-.37,0,.07-.02.14-.12.12v.24ZM36.3,84.39v-.25h-.25v.25h.25ZM36.18,77.55c-.58.66.59-.22,0-.12,0,0,0,.11,0,.12ZM36.18,83.17c0-.07.02-.14.12-.12-.01-.15-.04-.29-.25-.25.02.14-.02.35.12.37ZM36.05,79.14c.3.19.36-.42.12-.37,0,.07-.02.14-.12.12v.25ZM36.05,80.48c.3.19.36-.42.12-.37,0,.07-.02.14-.12.12v.25ZM36.18,88.43v-.25h-.25v.25h.25ZM35.93,69.6c-.58.66.59-.23,0-.12,0,0,0,.11,0,.12ZM35.93,73.88c0-.08.02-.15.12-.12-.01-.15-.04-.29-.24-.24.02.14-.02.34.12.37ZM35.81,71.19c.3.19.36-.41.12-.37,0,.07-.02.14-.12.12v.24ZM35.81,72.54c.35.18.35-.55,0-.37v.37ZM35.69,79.14c.3.19.36-.42.12-.37,0,.07-.02.14-.12.12v.25ZM35.69,81.83c.36.18.36-.55,0-.37v.37ZM35.81,88.43v-.25h-.25v.25h.25ZM35.57,89.77c.3.19.36-.42.12-.37,0,.08-.02.15-.12.12v.25ZM35.69,86.84c-.37.41.45.37,0,0h0ZM35.44,71.19c.3.19.36-.41.12-.37M35.57,80.48v-.25h-.25v.25h.25ZM35.57,79.14v-.25h-.25v.25h.25ZM35.57,77.79v-.25h-.25v.25h.25ZM35.44,89.77v-.25h-.25v.25h.25ZM35.44,88.43v-.25h-.25v.25h.25ZM35.44,87.08v-.25h-.25v.25h.25ZM35.32,82.93c-.58.67.59-.22,0-.12,0,0,0,.11,0,.12ZM35.32,84.15c-.37.41.45.37,0,0h0ZM35.2,79.14v-.25h-.24v.25h.24ZM35.2,81.58c-.21,0-.31.09-.37.25.21,0,.32-.1.37-.25ZM34.95,75.23c.3.19.36-.41.12-.37,0,.07-.02.14-.12.12v.25ZM34.95,87.21c0-.07.02-.15.12-.12-.02-.15-.04-.29-.25-.25.02.15-.02.35.12.37ZM34.95,88.55c0-.08.02-.15.12-.12-.02-.15-.04-.29-.25-.25.02.14-.02.35.12.37ZM34.83,84.52c.3.19.36-.41.12-.37,0,.08-.02.15-.12.12v.25ZM34.95,71.19v-.24h-.25v.24h.25ZM34.83,69.97c.02-.14.22-.28,0-.37-.02.14-.22.28,0,.37ZM34.83,79.14v-.25h-.24v.25h.24ZM34.71,74.98c-.58.67.59-.22,0-.12,0,0,0,.11,0,.12ZM34.71,77.92c0-.07.02-.15.12-.12-.01-.15-.04-.29-.24-.25.02.15-.02.35.12.37ZM34.59,76.57c.3.19.36-.42.12-.37,0,.07-.02.14-.12.12v.25ZM34.71,88.43v-.25h-.24v.25h.24ZM34.59,87.21c0-.07.02-.15.12-.12-.01-.15-.04-.29-.24-.25.02.15-.02.35.12.37ZM34.47,84.52c.3.19.36-.41.12-.37,0,.08-.02.15-.12.12v.25ZM34.47,85.86c.3.19.36-.42.12-.37,0,.07-.02.15-.12.12v.24ZM34.59,68.63v-.24h-.24v.24h.24ZM34.22,77.92c.3.19.36-.41.12-.37,0,.08-.02.15-.12.12v.25ZM34.22,85.86c0-.07.02-.14.12-.12-.02-.15-.04-.29-.24-.25.02.15-.02.35.12.37ZM34.22,87.21c0-.07.02-.15.12-.12-.02-.15-.04-.29-.24-.25.02.15-.02.35.12.37ZM34.1,84.52c.3.19.36-.41.12-.37,0,.08-.02.15-.12.12v.25ZM34.22,68.63v-.24h-.24v.24h.24ZM34.1,76.57v-.25h-.24v.25h.24ZM33.98,83.17v-.25h-.24v.25h.24ZM33.73,84.52c.3.19.36-.41.12-.37,0,.08-.02.15-.12.12v.25ZM33.61,48.58c0-.19.31-.1.24-.37-.18.07-.63-.14-.61.12.24-.04.24.17.37.25ZM33.73,76.57v-.25h-.25v.25h.25ZM33.61,84.52v-.25h-.25v.25h.25ZM33.49,80.36c-.58.67.59-.22,0-.12,0,0,0,.12,0,.12ZM33.61,48.7c-.78-.14-.27.37,0,0h0ZM33.24,65.33c-.37.41.45.37,0,0h0ZM32.39,48.46c.65.35,1.41-.12.12,0,0-.07-.1-.14-.12,0ZM32.14,48.95c1.14-.08.02-.35-.37.12.17.05.26-.12.37-.12ZM32.39,77.55c.28-.28.11-1.16-.12-1.34v.24c-.7-.19-.61.24-1.47.12v1.1c.85.2.76-.54,1.34-.61.3.14-.3.51.25.49ZM32.39,85.86c-.14-3.68.28-5.43,0-8.19-.29.28-1.1.04-1.59.12.1,2.79-.15,5.88,0,8.31.18-.18.04-.7.49-.61.71-.22.56.42,1.1.37ZM32.39,48.58c-.21.07-.72-.15-.73.12.21-.07.72.15.73-.12ZM31.65,48.46c.18-.07.63.14.61-.12-.18.07-.63-.14-.61.12ZM32.26,50.29c-.07-.18.14-.63-.12-.61-.19.18-.09.5.12.61ZM32.14,86.6c-.03-.83-.96.28-.37-.49-.39-.02-.74,0-.86.25.21,0,.31.09.37.25-.15.02-.07.13,0,.24.53.03.39-.52.86-.24ZM31.65,50.05c.34.19.34-.53.12-.49-.04.17-.17.24-.12.49ZM31.53,48.95c-.78-.14-.27.37,0,0h0ZM30.8,49.07c-.25.07-.8-.15-.86.12.26-.07.8.15.86-.12ZM29.94,48.95c.38.16.69-.35.37-.49-.04.25-.24.32-.37.49ZM29.82,49.19c-.25.07-.8-.15-.86.12.25-.07.8.15.86-.12ZM20.78,54.57c-.05-.33.11-1.49-.12-1.22.04.33-.11,1.49.12,1.22ZM20.65,63.01c.03-.17-.08-.48-.12-.25-.03.16.07.48.12.25ZM19.68,81.71c-.14.25.19.58.25.24-.16,0-.11-.21-.25-.24ZM18.09,80.85c-.19.02-.45-.04-.49.12.16.16.45.16.49-.12Z"/>
        <path class="cls-5" d="M55.24,40.51s.03,0,.04-.02c0,0-.02.01-.04.02Z"/>
        <path class="cls-5" d="M54.63,67.77c.17-.13.11,0,0,.12,0-.02,0-.11,0-.12Z"/>
        <polygon class="cls-5" points="54.63 67.89 54.63 67.89 54.63 67.89 54.63 67.89"/>
        <path class="cls-5" d="M52.68,49.44c.16-.13.11,0,0,.11,0-.03,0-.11,0-.11Z"/>
        <path class="cls-5" d="M52.68,49.55h0s0,0,0,0t0,0Z"/>
        <path class="cls-5" d="M52.21,41.25s-.01.07-.03.12c0-.04,0-.08.03-.12Z"/>
        <path class="cls-5" d="M50.72,41.25v2.44c-.25-.04-.38.02-.37.25-.52-.45-.11-1.84-.24-2.69h.61Z"/>
        <path class="cls-5" d="M49.86,41.25c.12.69.46,2.66-.37,2.81-.36-.52-.22-1.91-.12-2.69.19-.01.47.06.49-.12Z"/>
        <path class="cls-5" d="M40.82,63.98c.09.2.6-.03.49.37-.23-.05-.53-.05-.49-.37Z"/>
        <path class="cls-5" d="M39.72,86.96c-.11-.02-.12.05-.12.12-.14-.02-.1-.22-.12-.37.21-.05.23.09.25.24Z"/>
        <path class="cls-5" d="M39.35,84.27c-.1-.02-.11.05-.12.12-.14-.02-.1-.22-.12-.37.21-.05.23.09.25.24Z"/>
        <path class="cls-5" d="M38.86,81.34c.24-.05.18.55-.12.37v-.24c.11.02.12-.05.12-.12Z"/>
        <path class="cls-5" d="M38.86,90.75v.24h-.24v-.24h.24Z"/>
        <path class="cls-5" d="M37.28,64.59c.05-.23.16.08.12.25-.05.23-.16-.08-.12-.25Z"/>
        <path class="cls-5" d="M36.42,89.4c.24-.05.18.56-.12.37v-.25c.1.02.12-.05.12-.12Z"/>
        <path class="cls-5" d="M36.3,84.15v.25h-.25v-.25h.25Z"/>
        <path class="cls-5" d="M35.57,80.24v.25h-.25v-.25h.25Z"/>
        <path class="cls-5" d="M33.24,51.64c.17.04.1.31.12.49-.1-.02-.12-.12-.24-.12.01,1.54-.21.21-.12-.61.44-.24-.04.92.24.24Z"/>
        <path class="cls-5" d="M30.92,78.4h1.22c-.23.6-.55.36-1.22.49v-.49Z"/>
        <path class="cls-5" d="M32.02,82.8c.02.3-.19.38-.24.61-.41.03-.53-.24-.73-.12-.48-.49.49-.56.98-.49Z"/>
        <path class="cls-5" d="M32.02,80.12c.02.22-.15.25-.12.49-.16.06-.57-.12-.61.07,0-.16.03-.61-.25-.07-.3-.02-.04-.41,0-.49.5.1.42.02.98,0Z"/>
        <path class="cls-5" d="M30.92,81.09h1.1c-.12.4-.47.59-1.1.49v-.49Z"/>
        <path class="cls-5" d="M30.92,81.95h1.1c0,.24-.33.16-.24.49-.67.03-.39-.34-.86,0v-.49Z"/>
        <path class="cls-5" d="M30.92,83.78h1.1c-.05.19-.38.1-.24.49-.49.28-.75-.54-.73,0-.17-.04-.1-.3-.12-.49Z"/>
        <path class="cls-5" d="M30.92,84.64h1.1c-.04.49-.48.58-.98.61-.1-.14-.16-.33-.12-.61Z"/>
        <path class="cls-5" d="M30.92,79.26c.41.03.99-.1,1.22.12-.14.39-.67.39-1.22.37v-.49Z"/>
        <path class="cls-5" d="M31.4,48.69s0,.01,0,.01c-.02,0-.04,0-.05.01.01,0,.03-.01.04-.03Z"/>
        <path class="cls-5" d="M31.35,48.71c-.22.12-.37.06,0,0h0Z"/>
        <path class="cls-5" d="M28.97,48.46c.13.03.08.24.25.24-.15.17-.47.28-.61.12.01-.23.4-.08.37-.37Z"/>
        <path class="cls-5" d="M20.41,53.71c.01.12,0,.24,0,.34,0-.12,0-.24,0-.35,0,0,0,0,0,0Z"/>
        <path class="cls-5" d="M20.4,53.71c0,.11,0,.23,0,.35h0c-.03.18-.1.32-.24.39-.53.12-.41-.77-.24-.98.18.06.3.18.48.24Z"/>
        <path class="cls-5" d="M19.92,55.06c.11.13.45.04.37.37-.1.02-.11-.05-.12-.12-.21,0-.31.09-.37.25-.38-.12.14-.33.12-.49Z"/>
        <path class="cls-5" d="M19.8,55.92c.04-.17.31-.1.49-.12-.04.17-.3.1-.49.12Z"/>
        <path class="cls-5" d="M20.29,56.53c-.03.15-.24.12-.24,0-.15.05-.25.16-.25.37-.3-.02-.04-.42,0-.49.26-.05.33.08.49.12Z"/>
        <path class="cls-5" d="M20.16,71.32c.02.27-.43.06-.61.12-.02-.27.43-.06.61-.12Z"/>
        <path class="cls-5" d="M20.16,70.34h-.49c.02-.49.02-.5-.37-.37,0-.24.33-.16.24-.49.26-.05.33.08.49.12-.12.54-.02.32.12.73Z"/>
        <path class="cls-5" d="M20.04,65.08c.37.24-.42-.22-.37.24-.44-.1.3-.64.37-.24Z"/>
        <path class="cls-5" d="M20.16,59.34c-.02.14-.12.07-.12,0-.18.07-.3.19-.37.37-.29-.04.14-.33.12-.49.2-.03.21.12.37.12Z"/>
        <path class="cls-5" d="M19.8,66.92c-.31-.05.12-.35.37-.25-.03.18-.36.04-.37.25Z"/>
        <path class="cls-5" d="M19.43,72.54c.01-.27.52-.05.73-.12-.02.27-.52.05-.73.12Z"/>
        <path class="cls-5" d="M20.29,57.01c-.27.37-.78-.14,0,0h0Z"/>
        <path class="cls-5" d="M20.29,59.83c-.27.37-.78-.14,0,0h0Z"/>
        <path class="cls-5" d="M20.16,62.76c-.03.15-.24.12-.24,0-.15.05-.25.15-.25.37-.3-.02-.04-.41,0-.49.26-.05.32.08.49.12Z"/>
        <path class="cls-5" d="M19.43,75.96c-.02-.2.8-.25.61.12-.14-.1-.33-.16-.61-.12Z"/>
        <path class="cls-5" d="M19.55,68.38c.22.03.61-.12.49.24-.1-.02-.12-.12-.25-.12-.11.09-.18.22-.25.37-.37-.08.12-.26,0-.49Z"/>
        <path class="cls-5" d="M20.04,66.06c.19.43-.42.07-.37.37-.33-.11.06-.5.37-.37Z"/>
        <path class="cls-5" d="M20.29,62.15c-.39.37-.92-.15,0,0h0Z"/>
        <path class="cls-5" d="M20.29,61.05c-.39.37-.92-.15,0,0h0Z"/>
        <path class="cls-5" d="M20.04,73.52c.06.26-.18.23-.37.24.02-.1.12-.12.12-.24h.25Z"/>
        <path class="cls-5" d="M19.55,77.43c.24.05.53.04.49.37-.11.02-.12-.05-.12-.12-.14.02-.11.22-.12.37-.21.04-.23-.1-.25-.25-.1-.02-.11.05-.12.12-.38-.12.14-.33.12-.49Z"/>
        <path class="cls-5" d="M20.04,74.74c.02.26-.44.05-.61.12-.02-.27.43-.06.61-.12Z"/>
        <path class="cls-5" d="M19.68,61.54h.37c-.05.24-.48.1-.37.49-.37-.08.12-.26,0-.49Z"/>
        <path class="cls-5" d="M19.43,76.33c.34-.1.31.17.61.12-.19.22-.72.1-.73.49-.4-.18.25-.3.12-.61Z"/>
        <path class="cls-5" d="M19.8,60.68c-.38-.16.21-.56.37-.24-.03.17-.36.04-.37.24Z"/>
        <path class="cls-5" d="M19.92,71.93c.37.22-.54-.23-.37.37-.3-.02-.04-.41,0-.49.17-.01.35-.02.37.12Z"/>
        <path class="cls-5" d="M20.04,75.35c-.29-.18-.76.73-.86.25.26.06.23-.18.25-.37.28-.04.47.02.61.12Z"/>
        <path class="cls-5" d="M19.68,64.23c-.33-.11.06-.5.37-.37-.02.23-.4.09-.37.37Z"/>
        <path class="cls-5" d="M20.16,64.47c-.27.38-.78-.14,0,0h0Z"/>
        <path class="cls-5" d="M20.16,65.57c-.27.37-.78-.14,0,0h0Z"/>
        <path class="cls-5" d="M20.16,67.89c-.39.37-.91-.15,0,0h0Z"/>
        <path class="cls-5" d="M20.16,68.99c-.39.37-.91-.15,0,0h0Z"/>
        <path class="cls-5" d="M19.55,73.27c-.49-.14.49-.71.37-.12-.18-.14-.3-.13-.37.12Z"/>
        <path class="cls-5" d="M19.8,74.01c.23.23-.07.22,0,.61-.25-.07-.24-.37-.49-.12-.18.34.12-.61.49-.49Z"/>
        <path class="cls-5" d="M19.92,81.95c-.05.34-.39,0-.25-.24.13.03.08.24.25.24Z"/>
        <path class="cls-5" d="M19.68,67.16c.2-.03.21.12.37.12-.27.09-.33.41-.73.37.12-.16.33-.24.37-.49Z"/>
        <path class="cls-5" d="M19.55,70.58c.26-.05.33.08.49.12-.08.25-.62.03-.49.49-.36-.1.07-.39,0-.61Z"/>
        <path class="cls-5" d="M18.94,55.18c.12.13.45.04.37.37-.1-.02-.12-.12-.24-.12-.15.05-.25.16-.25.37-.37-.15.09-.47.12-.61Z"/>
        <path class="cls-5" d="M19.19,53.59c.19.18.11.63.12.98-.77.21-.66-.59-.49-.98h.37Z"/>
        <path class="cls-5" d="M19.31,62.27c.02.27-.43.05-.61.12-.16-.37-.12-.62.12-.86.48.03.42.61.49.73Z"/>
        <path class="cls-5" d="M19.31,59.95c.02.27-.43.06-.61.12-.02-.26.43-.06.61-.12Z"/>
        <path class="cls-5" d="M19.31,76.57c-.27.02-.06-.44-.12-.61.27-.02.06.43.12.61Z"/>
        <path class="cls-5" d="M19.19,56.65c.37.24-.42-.21-.37.25-.43-.1.3-.64.37-.25Z"/>
        <path class="cls-5" d="M18.82,57.26c.04-.17.31-.1.49-.12-.04.17-.31.1-.49.12Z"/>
        <path class="cls-5" d="M19.21,82.14s.01-.04.02-.06c0,.02,0,.04-.02.06Z"/>
        <path class="cls-5" d="M18.45,68.99c-.07-.9.99-.65.73.24h-.61c.14-.15.1-.25-.12-.24Z"/>
        <path class="cls-5" d="M19.19,70.22c.02.26-.44.05-.61.12-.02-.26.43-.05.61-.12Z"/>
        <path class="cls-5" d="M19.19,66.79c.02.27-.44.06-.61.12-.02-.27.43-.06.61-.12Z"/>
        <path class="cls-5" d="M19.06,62.88c.37.21-.54-.23-.37.36-.3-.02-.04-.41,0-.49.17-.01.35-.02.37.12Z"/>
        <path class="cls-5" d="M18.58,74.86c-.04-.22.69-.22.49.12-.11-.09-.28-.13-.49-.12Z"/>
        <path class="cls-5" d="M19.06,72.42c.12.37-.27.22-.49.25.08-.16.26-.23.49-.25Z"/>
        <path class="cls-5" d="M18.45,78.4c-.07-.26.73-.44.61,0-.38-.08-.24-.08-.61,0Z"/>
        <path class="cls-5" d="M19.06,65.08c.05.29-.56-.07-.37.37-.3-.02-.04-.41,0-.49.2-.04.21.12.37.12Z"/>
        <path class="cls-5" d="M19.06,79.38c.02.26-.44.05-.61.12.11-.21.43-.32.61-.12Z"/>
        <path class="cls-5" d="M19.06,77.06c.02.27-.44.06-.61.12-.02-.27.44-.06.61-.12Z"/>
        <path class="cls-5" d="M19.06,75.96c.02.27-.44.06-.61.12-.02-.26.44-.06.61-.12Z"/>
        <path class="cls-5" d="M19.06,73.64c.02.27-.44.06-.61.12-.02-.26.44-.05.61-.12Z"/>
        <path class="cls-5" d="M18.7,60.68c.05-.15.16-.25.37-.24-.05.15-.16.25-.37.24Z"/>
        <path class="cls-5" d="M18.58,66.18h.49c0,.12-.15.09-.25.12-.11.09-.18.22-.24.37-.37-.08.12-.26,0-.49Z"/>
        <path class="cls-5" d="M19.01,55.93s.06,0,.08,0c-.03,0-.06,0-.08,0Z"/>
        <path class="cls-5" d="M19.06,67.4c-.02.14-.12.07-.12,0-.29.04-.23.42-.61.37,0-.24.33-.15.25-.49.26-.05.32.08.49.12Z"/>
        <path class="cls-5" d="M19.19,64.47c-.27.38-.78-.14,0,0h0Z"/>
        <path class="cls-5" d="M18.7,64.35c-.33-.14-.01-.65.37-.49-.05.24-.47.1-.37.49Z"/>
        <path class="cls-5" d="M19.19,63.37c-.39.37-.91-.15,0,0h0Z"/>
        <path class="cls-5" d="M19.19,67.89c-.39.37-.91-.15,0,0h0Z"/>
        <path class="cls-5" d="M19.19,65.69c-.39.37-.91-.15,0,0h0Z"/>
        <path class="cls-5" d="M18.58,76.33c.11.13.45.04.37.37-.1-.02-.12-.12-.24-.12-.15.05-.25.16-.24.37-.37-.15.09-.47.12-.61Z"/>
        <path class="cls-5" d="M18.82,59.7c-.3-.05-.09-.56.25-.37-.08.12-.28.13-.25.37Z"/>
        <path class="cls-5" d="M18.94,77.67c.04.32-.68-.11-.49.37-.3-.02-.04-.41,0-.49.26-.05.32.08.49.12Z"/>
        <path class="cls-5" d="M18.45,78.65c.23.05.53.04.49.37-.1-.06-.2-.13-.37-.12-.12,0-.09.15-.12.25-.3-.02-.04-.42,0-.49Z"/>
        <path class="cls-5" d="M18.94,74.13c.02.42-.62.19-.61.61-.32-.25.16-.73.61-.61Z"/>
        <path class="cls-5" d="M18.58,70.71c.24-.04.38.02.37.24-.18-.18-.39-.09-.37.24-.3-.02-.04-.41,0-.49Z"/>
        <path class="cls-5" d="M19.06,71.32c-.27.37-.78-.14,0,0h0Z"/>
        <path class="cls-5" d="M18.58,70.09c-.36-.19.17-.82.37-.49-.05.24-.47.09-.37.49Z"/>
        <path class="cls-5" d="M18.33,75.71c0-.37.36-.62.61-.37-.22.11-.34.31-.61.37Z"/>
        <path class="cls-5" d="M18.58,72.9c.33-.09.24.24.49.24-.18.01-.65.06-.73.49-.17-.04-.1-.3-.12-.49.1-.02.12.05.12.12.11-.09.19-.22.25-.37Z"/>
        <path class="cls-5" d="M18.58,71.8c.2-.03.21.11.37.12-.22.11-.34.32-.61.37.06-.18.18-.31.25-.49Z"/>
        <path class="cls-5" d="M18.21,53.71c.18.18.18.8,0,.98-.52-.02-.45-.69-.37-.98h.37Z"/>
        <path class="cls-5" d="M18.21,61.78c.09.33-.58-.09-.49.24-.18-.05.05-.16,0-.37.26-.05.32.08.49.12Z"/>
        <path class="cls-5" d="M18.21,55.42c.05.29-.56-.07-.37.37-.3-.02-.04-.41,0-.49.2-.03.21.12.37.12Z"/>
        <path class="cls-5" d="M17.72,59.46h.49c-.12.17-.41.16-.49.37-.23.31.07-.12,0-.37Z"/>
        <path class="cls-5" d="M17.84,56.77c.83-.49-.24.47-.12,0,0,0,.11,0,.12,0Z"/>
        <path class="cls-5" d="M18.33,61.17c-.27.37-.78-.14,0,0h0Z"/>
        <path class="cls-5" d="M18.09,62.88c.05.29-.56-.07-.37.36-.3-.02-.04-.41,0-.49.2-.03.21.12.37.12Z"/>
        <path class="cls-5" d="M18.09,77.06v.25h-.49v-.25h.49Z"/>
        <path class="cls-5" d="M18.09,75.96c.02.27-.44.06-.61.12-.02-.26.43-.06.61-.12Z"/>
        <path class="cls-5" d="M18.09,74.86c.02.26-.44.05-.61.12-.02-.26.43-.05.61-.12Z"/>
        <path class="cls-5" d="M18.09,73.64v.25h-.37v-.25h.37Z"/>
        <path class="cls-5" d="M17.72,60.56h.37c-.05.24-.48.1-.37.49-.37-.08.12-.26,0-.49Z"/>
        <path class="cls-5" d="M17.97,72.05c.37.24-.42-.21-.37.25-.49-.16.29-.65.37-.25Z"/>
        <path class="cls-5" d="M17.97,68.63c.37.24-.42-.21-.37.25-.44-.1.3-.65.37-.25Z"/>
        <path class="cls-5" d="M18.09,65.2c-.02.14-.12.07-.12,0-.11.06-.22.11-.25.25-.38-.16.21-.56.37-.25Z"/>
        <path class="cls-5" d="M17.6,80.97c.04-.17.31-.1.49-.12-.04.28-.33.28-.49.12Z"/>
        <path class="cls-5" d="M18.21,63.49c-.27.37-.78-.14,0,0h0Z"/>
        <path class="cls-5" d="M18.21,64.59c-.27.37-.78-.14,0,0h0Z"/>
        <path class="cls-5" d="M18.21,69.12c-.27.37-.78-.14,0,0h0Z"/>
        <path class="cls-5" d="M17.97,69.6c.18.46-.55.02-.37.49-.3-.02-.04-.41,0-.49h.37Z"/>
        <path class="cls-5" d="M17.97,67.4c.08.08-.48.34-.37.12.02-.03.26-.23.37-.12Z"/>
        <path class="cls-5" d="M17.6,74.13c.27-.02.39.1.37.37-.1-.02-.12-.12-.25-.12-.12.08-.13.28-.37.25.06-.18.18-.31.24-.49Z"/>
        <path class="cls-5" d="M17.97,76.57c.04.32-.69-.12-.49.37-.3-.02-.04-.41,0-.49.25-.05.32.08.49.12Z"/>
        <path class="cls-5" d="M17.72,66.55c-.38-.16.21-.56.37-.24-.03.18-.37.04-.37.24Z"/>
        <path class="cls-5" d="M18.09,68.01c-.27.37-.79-.14,0,0h0Z"/>
        <path class="cls-5" d="M18.09,71.44c-.27.37-.79-.14,0,0h0Z"/>
        <path class="cls-5" d="M18.09,72.54c-.27.37-.79-.14,0,0h0Z"/>
        <path class="cls-5" d="M17.6,64.1c.2-.28.82.04.12,0,.02.3-.15.21-.12,0Z"/>
        <path class="cls-5" d="M17.97,75.47c-.03.15-.24.12-.25,0-.15.05-.25.16-.24.37-.3-.02-.04-.41,0-.49.25-.05.32.08.49.12Z"/>
        <path class="cls-5" d="M17.48,71.32c-.32-.16.31-.79.49-.49-.15.18-.49.16-.49.49Z"/>
        <path class="cls-5" d="M17.48,73.03c.25-.05.32.08.49.12-.11.18-.39.18-.61.25.06-.1.13-.2.12-.37Z"/>
        <path class="cls-5" d="M17.23,53.84c.17.16.12.53.12.85-.68.14-.66-.48-.49-.85h.37Z"/>
        <path class="cls-5" d="M17.23,55.42c.18.46-.55.03-.37.49-.3-.02-.04-.41,0-.49h.37Z"/>
        <path class="cls-5" d="M17.23,56.77c.05.29-.56-.07-.37.37-.3-.02-.04-.41,0-.49.2-.03.21.12.37.12Z"/>
        <path class="cls-5" d="M17.23,69.24c.02.27-.43.06-.61.12-.11-.13.79-.27-.25-.24.05-.23.26-.31.25-.61.64-.01.47.51.61.73Z"/>
        <path class="cls-5" d="M17.23,65.81c.02.27-.43.06-.61.12-.02-.26.43-.05.61-.12Z"/>
        <path class="cls-5" d="M16.5,75.35c.54-.05.66.31.61.86-.76.08-.4-.2-.86-.37-.15-.4.4-.09.25-.49Z"/>
        <path class="cls-5" d="M16.86,59.46c.53.02.22.21.24.61-.36.03-.43-.44-.24-.61Z"/>
        <path class="cls-5" d="M17.11,74.86c.02.26-.43.05-.61.12-.02-.26.44-.05.61-.12Z"/>
        <path class="cls-5" d="M17.11,73.76c.02.27-.43.06-.61.12-.02-.27.44-.06.61-.12Z"/>
        <path class="cls-5" d="M17.11,70.34c.02.27-.43.06-.61.12-.02-.26.44-.05.61-.12Z"/>
        <path class="cls-5" d="M17.11,63.01c-.02.14-.12.07-.12,0-.15.05-.25.16-.24.37-.3-.02-.04-.41,0-.49.2-.04.21.11.37.12Z"/>
        <path class="cls-5" d="M17.23,61.29c-.27.37-.78-.14,0,0h0Z"/>
        <path class="cls-5" d="M17.23,62.39c-.27.37-.78-.14,0,0h0Z"/>
        <path class="cls-5" d="M16.74,62.27c-.33-.14-.01-.65.37-.49-.05.24-.47.09-.37.49Z"/>
        <path class="cls-5" d="M16.5,61.17c.14-.23.15-.59.61-.49-.27.1-.27.46-.61.49Z"/>
        <path class="cls-5" d="M17.23,66.92c-.25.4-.63-.09-.86-.12,0-.24.34-.16.25-.49.63-.12.53.49.61.61Z"/>
        <path class="cls-5" d="M16.62,73.03c.11.13.45.04.37.37-.1-.02-.12-.12-.24-.12-.23.05-.1.47-.49.37.11-.21.3-.35.37-.61Z"/>
        <path class="cls-5" d="M16.99,72.05c.05.29-.56-.07-.37.37-.31-.02-.04-.41,0-.49.2-.03.21.12.37.12Z"/>
        <path class="cls-5" d="M16.99,77.18c.02.27-.43.06-.61.12-.02-.27.44-.06.61-.12Z"/>
        <path class="cls-5" d="M16.62,65.2c.27-.09.78.12.24.12-.12,0-.09.15-.12.25-.14-.02-.11-.22-.12-.37Z"/>
        <path class="cls-5" d="M16.74,64.35c-.38-.16.21-.56.37-.25-.03.18-.37.04-.37.25Z"/>
        <path class="cls-5" d="M16.99,70.95c-.02.14-.12.07-.12,0-.15.05-.25.16-.24.37-.31-.02-.04-.41,0-.49.2-.04.21.12.37.12Z"/>
        <path class="cls-5" d="M16.99,76.69c-.02.14-.12.07-.12,0-.46-.13-.19.46-.61.37-.09-.38.34-.24.25-.61.33-.09.25.24.49.25Z"/>
        <path class="cls-5" d="M17.11,72.66c-.27.37-.78-.14,0,0h0Z"/>
        <path class="cls-5" d="M16.62,70.22c-.33-.14-.01-.65.37-.49-.05.24-.47.1-.37.49Z"/>
        <path class="cls-5" d="M16.37,74.98c-.41-.31.28-1,.61-.61-.25.12-.6.02-.61.61Z"/>
        <path class="cls-5" d="M17.11,67.53c-.16.21-.58.15-.61.49-.4-.18.25-.3.12-.61.26-.05.32.08.49.12Z"/>
      </g>
    </g>
    <path class="cls-10" d="M91.21,51.62c0,22.13-17.88,40.06-39.93,40.06S11.36,73.75,11.36,51.62,29.23,11.56,51.28,11.56s39.93,17.94,39.93,40.06Z"/>
  </g>
</svg>