<?xml version="1.0" encoding="UTF-8" standalone="no"?>
<svg
   xmlns:dc="http://purl.org/dc/elements/1.1/"
   xmlns:cc="http://creativecommons.org/ns#"
   xmlns:rdf="http://www.w3.org/1999/02/22-rdf-syntax-ns#"
   xmlns:svg="http://www.w3.org/2000/svg"
   xmlns="http://www.w3.org/2000/svg"
   viewBox="0 0 681.18665 291.69333"
   height="291.69333"
   width="681.18665"
   xml:space="preserve"
   id="svg2"
   version="1.1"><metadata
     id="metadata8"><rdf:RDF><cc:Work
         rdf:about=""><dc:format>image/svg+xml</dc:format><dc:type
           rdf:resource="http://purl.org/dc/dcmitype/StillImage" /></cc:Work></rdf:RDF></metadata><defs
     id="defs6" /><g
     transform="matrix(1.3333333,0,0,-1.3333333,0,291.69333)"
     id="g10"><g
       transform="scale(0.1)"
       id="g12"><path
         id="path14"
         style="fill:#f78e1b;fill-opacity:1;fill-rule:nonzero;stroke:none"
         d="M 4054.28,817.711 3751.97,1450.71 3389.83,1347.4 v -269.74 l 325.4,90.94 76.98,-170.151 L 3389.83,885.98 V 626.43 l 664.45,191.281" /><path
         id="path16"
         style="fill:#f78e1b;fill-opacity:1;fill-rule:nonzero;stroke:none"
         d="m 3884.37,1685.01 206.82,-443.08 89.37,31.33 40.24,-284.78 127.55,493.47 -128.2,-47.26 96.34,371.29 162.24,46.79 h -884.98 c -218.18,0 -398.54,-161.08 -428.07,-370.42 l 718.69,202.66" /><path
         id="path18"
         style="fill:#f78e1b;fill-opacity:1;fill-rule:nonzero;stroke:none"
         d="M 4379.03,699.922 3218.3,371.18 h 980.19 c 238.8,0 432.39,192.922 432.39,430.879 V 1679.86 L 4379.03,699.922" /><path
         id="path20"
         style="fill:#f78e1b;fill-opacity:1;fill-rule:nonzero;stroke:none"
         d="m 4668.78,1829.26 h -38.42 v -104.15 h -30.85 v 104.15 h -37.7 v 23.83 h 106.97 v -23.83" /><path
         id="path22"
         style="fill:#f78e1b;fill-opacity:1;fill-rule:nonzero;stroke:none"
         d="m 4731.3,1853.09 28.57,-89.05 28.47,89.05 h 40.62 v -127.98 h -30.94 v 29.88 l 2.99,61.17 -30.95,-91.05 h -20.39 l -31.02,91.14 2.98,-61.26 v -29.88 h -30.85 v 127.98 h 40.52" /><path
         id="path24"
         style="fill:#231f20;fill-opacity:1;fill-rule:nonzero;stroke:none"
         d="m 995.262,1234.4 c 0,-78.55 -40.129,-120.07 -116.043,-120.07 H 687.801 v 358.28 h 188.734 c 83.219,0 118.727,-33.5 118.727,-112.02 z M 871.18,1670.98 H 465.91 V 542.789 H 687.801 V 917.27 h 211.508 c 200.121,0 306.781,114.62 308.451,331.5 l 0.02,124.44 c 0,211.5 -97.52,297.77 -336.6,297.77" /><path
         id="path26"
         style="fill:#231f20;fill-opacity:1;fill-rule:nonzero;stroke:none"
         d="m 1552.48,1473.95 h 194.86 c 76.65,0 109.36,-31.5 109.36,-105.33 v -110.11 c 0,-78.55 -37.82,-120.07 -109.36,-120.07 h -194.86 z m 410.27,-477.63 c 72.04,48.45 110.86,133.46 115.39,252.7 l 0.44,129.55 c 0,196.76 -101.34,292.41 -309.81,292.41 H 1330.59 V 542.789 h 221.89 v 407.949 h 187.24 l 132.5,-407.949 h 239.97 l -154.07,450.43 4.63,3.101" /><path
         id="path28"
         style="fill:#231f20;fill-opacity:1;fill-rule:nonzero;stroke:none"
         d="m 2421.94,947.672 -0.65,319.758 c 0,136.53 63.37,205.77 188.36,205.77 124.98,0 188.36,-69.23 188.36,-205.77 l 0.65,-319.75 c 0,-64.86 -14.97,-115.45 -44.48,-150.352 -31.84,-37.648 -80.24,-56.738 -143.88,-56.738 -63.26,0 -111.49,18.91 -143.36,56.211 -29.86,34.949 -45,85.711 -45,150.871 z m 603.13,283.938 c -3.1,147.22 -44.63,260.2 -123.42,335.8 -70.62,67.75 -171.59,103.57 -292,103.57 -120.08,0 -220.81,-35.96 -291.28,-103.99 -78.74,-75.99 -120.07,-189.45 -122.85,-337.26 -0.05,-4.49 0.21,-113.35 0.42,-194.84 l 0.09,-40.331 c 0,-291.329 147.12,-451.77 414.27,-451.77 133,0 236.45,38.789 307.48,115.27 71.75,77.23 108.12,190.453 108.12,336.5 0,11.741 -0.73,231.761 -0.83,237.051" /></g></g></svg>