<?xml version="1.0" encoding="UTF-8"?>
<!DOCTYPE svg PUBLIC "-//W3C//DTD SVG 1.1//EN" "http://www.w3.org/Graphics/SVG/1.1/DTD/svg11.dtd">
<!-- Creator: CorelDRAW X7 -->
<svg xmlns="http://www.w3.org/2000/svg" xml:space="preserve" width="81.885mm" height="9.818mm" version="1.1" style="shape-rendering:geometricPrecision; text-rendering:geometricPrecision; image-rendering:optimizeQuality; fill-rule:evenodd; clip-rule:evenodd"
viewBox="0 0 8739 1048"
 xmlns:xlink="http://www.w3.org/1999/xlink">
 <defs>
  <style type="text/css">
   <![CDATA[
    .str1 {stroke:#FEFEFE;stroke-width:3.76717}
    .str0 {stroke:#FEFEFE;stroke-width:18.8252}
    .fil0 {fill:none}
    .fil1 {fill:#ffdc0a}
   ]]>
  </style>
 </defs>
 <g id="Ebene_x0020_1">
  <metadata id="CorelCorpID_0Corel-Layer"/>
  <g id="_685366480">
   <g>
    <polygon class="fil0 str0" points="411,9 249,9 235,9 221,10 208,12 194,12 182,14 170,16 158,19 147,22 137,26 126,30 116,35 107,40 98,45 89,52 81,59 74,65 67,73 60,82 54,91 48,101 43,111 38,122 33,134 29,146 26,159 23,172 20,187 18,202 15,218 14,235 13,252 12,270 12,283 14,295 15,307 18,318 21,329 25,339 29,350 35,360 41,370 48,379 56,389 65,399 75,410 85,420 96,431 108,442 650,939 658,946 665,952 671,958 675,963 680,970 684,976 687,981 689,987 691,993 692,999 693,1005 694,1012 694,1024 694,1038 718,1038 742,1038 763,1038 784,1038 802,1038 820,1038 835,1038 847,1038 863,1038 877,1038 890,1037 903,1035 916,1033 928,1031 939,1028 951,1024 961,1020 971,1016 980,1011 990,1006 997,1000 1006,993 1013,986 1019,978 1026,970 1032,961 1037,951 1043,941 1047,930 1051,918 1055,906 1058,893 1061,880 1063,866 1066,851 1067,835 1069,819 1069,802 1070,783 1071,765 1070,751 1069,738 1067,725 1064,713 1060,701 1056,690 1050,680 1044,670 1038,660 1030,651 1023,642 1014,633 1005,625 995,616 985,607 975,598 447,114 440,108 435,103 429,97 425,91 421,86 418,79 415,73 413,67 412,60 411,53 410,46 410,39 410,25 "/>
    <polygon id="1" class="fil1" points="411,9 249,9 235,9 221,10 208,12 194,12 182,14 170,16 158,19 147,22 137,26 126,30 116,35 107,40 98,45 89,52 81,59 74,65 67,73 60,82 54,91 48,101 43,111 38,122 33,134 29,146 26,159 23,172 20,187 18,202 15,218 14,235 13,252 12,270 12,283 14,295 15,307 18,318 21,329 25,339 29,350 35,360 41,370 48,379 56,389 65,399 75,410 85,420 96,431 108,442 650,939 658,946 665,952 671,958 675,963 680,970 684,976 687,981 689,987 691,993 692,999 693,1005 694,1012 694,1024 694,1038 718,1038 742,1038 763,1038 784,1038 802,1038 820,1038 835,1038 847,1038 863,1038 877,1038 890,1037 903,1035 916,1033 928,1031 939,1028 951,1024 961,1020 971,1016 980,1011 990,1006 997,1000 1006,993 1013,986 1019,978 1026,970 1032,961 1037,951 1043,941 1047,930 1051,918 1055,906 1058,893 1061,880 1063,866 1066,851 1067,835 1069,819 1069,802 1070,783 1071,765 1070,751 1069,738 1067,725 1064,713 1060,701 1056,690 1050,680 1044,670 1038,660 1030,651 1023,642 1014,633 1005,625 995,616 985,607 975,598 447,114 440,108 435,103 429,97 425,91 421,86 418,79 415,73 413,67 412,60 411,53 410,46 410,39 410,25 "/>
   </g>
   <g>
    <polygon class="fil0 str0" points="205,1036 252,1036 305,1036 358,1036 412,1036 463,1036 509,1036 547,1036 575,1036 507,973 435,906 362,837 288,768 215,699 144,633 75,569 9,509 9,859 10,867 12,877 15,888 21,901 26,915 35,930 38,937 44,945 49,953 55,960 61,967 67,975 74,982 81,989 89,995 98,1002 106,1007 115,1013 125,1018 135,1023 145,1026 156,1030 168,1033 180,1034 192,1036 "/>
    <polygon id="1" class="fil1" points="205,1036 252,1036 305,1036 358,1036 412,1036 463,1036 509,1036 547,1036 575,1036 507,973 435,906 362,837 288,768 215,699 144,633 75,569 9,509 9,859 10,867 12,877 15,888 21,901 26,915 35,930 38,937 44,945 49,953 55,960 61,967 67,975 74,982 81,989 89,995 98,1002 106,1007 115,1013 125,1018 135,1023 145,1026 156,1030 168,1033 180,1034 192,1036 "/>
   </g>
   <g>
    <polygon class="fil0 str0" points="881,9 834,9 783,9 731,9 679,9 630,9 586,9 550,9 522,9 589,72 658,137 729,204 801,271 872,338 942,403 1008,465 1071,523 1071,182 1070,175 1069,165 1065,154 1060,141 1055,128 1047,113 1043,105 1038,99 1033,91 1028,84 1022,76 1016,69 1009,62 1002,55 994,49 986,43 978,38 969,32 959,27 949,23 939,19 929,15 918,13 906,12 894,10 "/>
    <polygon id="1" class="fil1" points="881,9 834,9 783,9 731,9 679,9 630,9 586,9 550,9 522,9 589,72 658,137 729,204 801,271 872,338 942,403 1008,465 1071,523 1071,182 1070,175 1069,165 1065,154 1060,141 1055,128 1047,113 1043,105 1038,99 1033,91 1028,84 1022,76 1016,69 1009,62 1002,55 994,49 986,43 978,38 969,32 959,27 949,23 939,19 929,15 918,13 906,12 894,10 "/>
   </g>
   <g>
    <polygon class="fil0 str0" points="1663,9 1394,9 1383,9 1372,11 1361,12 1351,14 1341,16 1331,19 1322,22 1312,26 1303,31 1294,36 1286,40 1278,45 1270,51 1263,57 1256,64 1249,70 1242,77 1236,84 1230,91 1226,99 1220,106 1216,115 1211,122 1208,130 1204,139 1202,147 1199,156 1197,163 1196,172 1194,180 1194,189 1193,197 1193,838 1194,848 1194,859 1196,870 1197,879 1199,889 1203,899 1206,908 1210,917 1213,926 1218,935 1223,943 1228,951 1233,959 1240,966 1246,973 1253,980 1259,987 1266,992 1274,998 1283,1003 1290,1009 1299,1014 1307,1017 1317,1021 1326,1024 1335,1027 1344,1030 1354,1032 1363,1033 1373,1035 1384,1036 1394,1036 1663,1036 "/>
    <polygon id="1" class="fil1" points="1663,9 1394,9 1383,9 1372,11 1361,12 1351,14 1341,16 1331,19 1322,22 1312,26 1303,31 1294,36 1286,40 1278,45 1270,51 1263,57 1256,64 1249,70 1242,77 1236,84 1230,91 1226,99 1220,106 1216,115 1211,122 1208,130 1204,139 1202,147 1199,156 1197,163 1196,172 1194,180 1194,189 1193,197 1193,838 1194,848 1194,859 1196,870 1197,879 1199,889 1203,899 1206,908 1210,917 1213,926 1218,935 1223,943 1228,951 1233,959 1240,966 1246,973 1253,980 1259,987 1266,992 1274,998 1283,1003 1290,1009 1299,1014 1307,1017 1317,1021 1326,1024 1335,1027 1344,1030 1354,1032 1363,1033 1373,1035 1384,1036 1394,1036 1663,1036 "/>
   </g>
   <g>
    <polygon class="fil0 str0" points="2261,149 2259,142 2256,134 2253,127 2250,120 2245,114 2241,107 2238,101 2233,94 2228,88 2223,82 2218,76 2212,70 2206,65 2200,60 2194,55 2187,50 2180,45 2173,41 2166,37 2158,33 2151,29 2142,26 2134,23 2126,20 2117,18 2108,15 2099,14 2090,12 2081,12 2071,10 2061,9 2050,9 2012,9 1971,9 1930,9 1889,9 1851,9 1817,9 1790,9 1769,9 1769,426 2261,426 2261,389 2261,349 2261,310 2261,270 2261,233 2261,199 2261,171 "/>
    <polygon id="1" class="fil1" points="2261,149 2259,142 2256,134 2253,127 2250,120 2245,114 2241,107 2238,101 2233,94 2228,88 2223,82 2218,76 2212,70 2206,65 2200,60 2194,55 2187,50 2180,45 2173,41 2166,37 2158,33 2151,29 2142,26 2134,23 2126,20 2117,18 2108,15 2099,14 2090,12 2081,12 2071,10 2061,9 2050,9 2012,9 1971,9 1930,9 1889,9 1851,9 1817,9 1790,9 1769,9 1769,426 2261,426 2261,389 2261,349 2261,310 2261,270 2261,233 2261,199 2261,171 "/>
   </g>
   <g>
    <polygon class="fil0 str0" points="2261,887 2259,896 2256,903 2253,911 2250,918 2245,926 2241,933 2238,940 2233,947 2228,954 2223,960 2218,966 2212,972 2206,978 2200,983 2194,989 2187,994 2180,999 2173,1003 2166,1007 2158,1012 2151,1016 2142,1019 2134,1022 2126,1025 2117,1027 2108,1030 2099,1031 2090,1033 2081,1034 2071,1036 2061,1036 2050,1036 2012,1036 1971,1036 1930,1036 1889,1036 1851,1036 1817,1036 1790,1036 1769,1036 1769,625 2261,625 2261,658 2261,696 2261,733 2261,771 2261,807 2261,840 2261,867 "/>
    <polygon id="1" class="fil1" points="2261,887 2259,896 2256,903 2253,911 2250,918 2245,926 2241,933 2238,940 2233,947 2228,954 2223,960 2218,966 2212,972 2206,978 2200,983 2194,989 2187,994 2180,999 2173,1003 2166,1007 2158,1012 2151,1016 2142,1019 2134,1022 2126,1025 2117,1027 2108,1030 2099,1031 2090,1033 2081,1034 2071,1036 2061,1036 2050,1036 2012,1036 1971,1036 1930,1036 1889,1036 1851,1036 1817,1036 1790,1036 1769,1036 1769,625 2261,625 2261,658 2261,696 2261,733 2261,771 2261,807 2261,840 2261,867 "/>
   </g>
   <g>
    <polygon class="fil0 str0" points="2859,471 2859,15 2384,15 2384,1036 2859,1036 2859,575 2966,575 2966,1036 3456,1036 3456,995 3456,886 3456,730 3456,550 3456,366 3456,202 3456,77 3456,15 2966,15 2966,471 "/>
    <polygon id="1" class="fil1" points="2859,471 2859,15 2384,15 2384,1036 2859,1036 2859,575 2966,575 2966,1036 3456,1036 3456,995 3456,886 3456,730 3456,550 3456,366 3456,202 3456,77 3456,15 2966,15 2966,471 "/>
   </g>
   <g>
    <polygon class="fil0 str0" points="4254,549 4284,549 4312,549 4341,549 4370,549 4399,549 4429,549 4461,549 4494,549 4507,549 4521,548 4535,546 4548,543 4560,540 4572,536 4578,533 4583,530 4588,527 4593,524 4598,521 4603,516 4607,513 4611,508 4615,503 4617,498 4621,492 4625,487 4627,481 4629,475 4631,468 4632,461 4633,454 4634,446 4634,437 4634,429 4634,150 4634,144 4634,137 4633,129 4632,123 4630,117 4628,110 4626,104 4624,98 4621,91 4617,86 4615,79 4610,74 4607,69 4602,63 4598,58 4593,53 4588,49 4582,44 4577,40 4571,36 4564,32 4558,29 4552,26 4545,24 4538,21 4531,19 4524,17 4516,16 4508,15 4500,15 4492,14 4483,15 4141,15 4141,1036 4749,1036 "/>
    <polygon id="1" class="fil1" points="4254,549 4284,549 4312,549 4341,549 4370,549 4399,549 4429,549 4461,549 4494,549 4507,549 4521,548 4535,546 4548,543 4560,540 4572,536 4578,533 4583,530 4588,527 4593,524 4598,521 4603,516 4607,513 4611,508 4615,503 4617,498 4621,492 4625,487 4627,481 4629,475 4631,468 4632,461 4633,454 4634,446 4634,437 4634,429 4634,150 4634,144 4634,137 4633,129 4632,123 4630,117 4628,110 4626,104 4624,98 4621,91 4617,86 4615,79 4610,74 4607,69 4602,63 4598,58 4593,53 4588,49 4582,44 4577,40 4571,36 4564,32 4558,29 4552,26 4545,24 4538,21 4531,19 4524,17 4516,16 4508,15 4500,15 4492,14 4483,15 4141,15 4141,1036 4749,1036 "/>
   </g>
   <g>
    <polygon class="fil0 str0" points="4037,15 3565,15 3565,1036 4037,1036 "/>
    <polygon id="1" class="fil1" points="4037,15 3565,15 3565,1036 4037,1036 "/>
   </g>
   <g>
    <polygon class="fil0 str0" points="5332,9 5624,9 5634,9 5644,11 5653,12 5663,14 5673,16 5681,19 5689,23 5699,27 5706,31 5715,36 5723,41 5730,46 5737,52 5745,59 5752,65 5758,72 5764,79 5769,86 5776,93 5781,101 5786,109 5789,117 5793,125 5798,134 5800,142 5803,151 5806,159 5808,168 5810,176 5810,185 5812,194 5812,202 5812,830 5812,841 5810,852 5810,863 5808,873 5806,883 5803,893 5800,903 5798,912 5793,920 5789,930 5786,939 5781,947 5776,955 5769,963 5764,970 5758,977 5752,983 5745,990 5737,996 5730,1002 5723,1007 5715,1012 5706,1016 5699,1020 5689,1024 5681,1026 5673,1030 5663,1032 5653,1033 5644,1035 5634,1036 5624,1036 5332,1036 "/>
    <polygon id="1" class="fil1" points="5332,9 5624,9 5634,9 5644,11 5653,12 5663,14 5673,16 5681,19 5689,23 5699,27 5706,31 5715,36 5723,41 5730,46 5737,52 5745,59 5752,65 5758,72 5764,79 5769,86 5776,93 5781,101 5786,109 5789,117 5793,125 5798,134 5800,142 5803,151 5806,159 5808,168 5810,176 5810,185 5812,194 5812,202 5812,830 5812,841 5810,852 5810,863 5808,873 5806,883 5803,893 5800,903 5798,912 5793,920 5789,930 5786,939 5781,947 5776,955 5769,963 5764,970 5758,977 5752,983 5745,990 5737,996 5730,1002 5723,1007 5715,1012 5706,1016 5699,1020 5689,1024 5681,1026 5673,1030 5663,1032 5653,1033 5644,1035 5634,1036 5624,1036 5332,1036 "/>
   </g>
   <g>
    <polygon class="fil0 str0" points="5221,9 4949,9 4938,9 4928,11 4918,12 4907,14 4897,16 4888,19 4878,23 4868,27 4860,31 4851,36 4843,41 4835,46 4826,52 4819,59 4812,65 4805,72 4798,79 4793,86 4787,93 4781,101 4776,109 4771,117 4768,125 4764,134 4760,142 4757,151 4754,159 4752,168 4751,176 4750,185 4749,194 4749,202 4749,830 4749,841 4750,852 4751,863 4753,873 4755,883 4758,893 4762,903 4764,912 4769,920 4774,930 4778,939 4783,947 4789,955 4795,963 4801,970 4808,977 4815,983 4822,990 4830,996 4838,1002 4846,1007 4855,1012 4863,1016 4872,1020 4882,1024 4890,1026 4900,1030 4909,1032 4919,1033 4929,1035 4939,1036 4949,1036 5221,1036 "/>
    <polygon id="1" class="fil1" points="5221,9 4949,9 4938,9 4928,11 4918,12 4907,14 4897,16 4888,19 4878,23 4868,27 4860,31 4851,36 4843,41 4835,46 4826,52 4819,59 4812,65 4805,72 4798,79 4793,86 4787,93 4781,101 4776,109 4771,117 4768,125 4764,134 4760,142 4757,151 4754,159 4752,168 4751,176 4750,185 4749,194 4749,202 4749,830 4749,841 4750,852 4751,863 4753,873 4755,883 4758,893 4762,903 4764,912 4769,920 4774,930 4778,939 4783,947 4789,955 4795,963 4801,970 4808,977 4815,983 4822,990 4830,996 4838,1002 4846,1007 4855,1012 4863,1016 4872,1020 4882,1024 4890,1026 4900,1030 4909,1032 4919,1033 4929,1035 4939,1036 4949,1036 5221,1036 "/>
   </g>
   <g>
    <polygon class="fil0 str0" points="6728,1036 6728,169 7003,629 7003,9 5923,9 5923,629 6204,169 6204,1036 "/>
    <polygon id="1" class="fil1" points="6728,1036 6728,169 7003,629 7003,9 5923,9 5923,629 6204,169 6204,1036 "/>
   </g>
   <g>
    <polygon class="fil0 str0" points="7605,471 7605,9 7123,9 7123,1036 7605,1036 7605,572 7722,572 7722,1036 8208,1036 8208,995 8208,885 8208,729 8208,548 8208,364 8208,199 8208,73 8208,9 7722,9 7722,471 "/>
    <polygon id="1" class="fil1" points="7605,471 7605,9 7123,9 7123,1036 7605,1036 7605,572 7722,572 7722,1036 8208,1036 8208,995 8208,885 8208,729 8208,548 8208,364 8208,199 8208,73 8208,9 7722,9 7722,471 "/>
   </g>
   <g>
    <path class="fil0 str1" d="M8540 12l-14 1 -13 2 -13 1 -13 3 -12 4 -11 4 -11 5 -11 6 -10 7 -10 7 -9 8 -9 9 -9 9 -8 11 -8 10 -7 11 -7 13 -5 13 -6 13 -4 13 -3 13 -2 14 -1 13 -1 14 0 10 1 9 1 10 2 11 1 9 3 9 3 9 4 10 3 8 4 8 5 9 5 8 6 8 5 8 7 8 7 8 7 7 8 7 8 6 8 6 8 5 8 6 9 4 8 4 9 3 9 4 9 3 10 2 9 1 9 2 10 1 11 0 9 0 10 -1 9 -2 10 -1 9 -2 9 -3 9 -3 9 -4 8 -3 9 -4 8 -5 8 -5 8 -7 8 -6 8 -6 7 -7 7 -7 7 -8 6 -8 6 -8 5 -8 4 -9 5 -9 3 -8 4 -9 3 -10 2 -10 3 -9 2 -10 0 -10 1 -11 1 -10 -1 -10 -1 -10 0 -11 -2 -9 -2 -10 -3 -9 -3 -9 -3 -9 -4 -9 -4 -8 -4 -9 -6 -8 -5 -8 -5 -8 -7 -8 -6 -7 -8 -7 -8 -7 -7 -7 -8 -5 -9 -6 -7 -5 -10 -5 -8 -4 -8 -3 -10 -3 -10 -3 -9 -3 -10 -1 -10 -1 -9 -1 -10 -1zm0 34l8 0 9 1 8 1 8 1 8 2 7 2 8 2 8 4 7 3 7 4 7 4 7 5 7 4 6 6 6 6 7 6 5 6 5 6 5 7 4 6 5 7 4 8 3 7 3 8 3 7 3 9 1 7 2 9 1 8 2 9 0 8 0 10 0 9 0 7 -2 9 -1 8 -2 7 -2 8 -3 8 -2 7 -3 7 -5 7 -3 7 -4 7 -5 7 -4 7 -7 5 -5 7 -6 6 -7 6 -7 5 -6 5 -7 4 -7 4 -7 4 -8 2 -7 4 -7 3 -8 1 -7 2 -8 2 -8 0 -9 1 -7 1 -9 -1 -8 -1 -9 -1 -7 -1 -8 -2 -8 -2 -7 -2 -7 -4 -7 -3 -7 -4 -7 -4 -7 -5 -7 -4 -7 -6 -6 -5 -6 -7 -5 -6 -6 -6 -5 -7 -5 -7 -4 -7 -4 -7 -3 -7 -4 -8 -3 -7 -2 -7 -2 -8 -1 -8 -2 -8 0 -8 -1 -9 0 -8 0 -9 1 -8 0 -9 2 -8 2 -8 2 -9 2 -7 3 -7 3 -8 5 -7 4 -7 4 -7 5 -7 5 -7 6 -7 5 -7 7 -5 5 -6 7 -5 7 -5 6 -4 7 -4 7 -3 7 -4 7 -3 7 -3 8 -1 7 -2 8 -1 8 -1 8 -1 9 0zm-82 53l0 225 53 0 0 -91 27 0 41 91 59 0 -50 -100 6 -2 6 -2 5 -2 4 -2 5 -4 3 -3 4 -3 3 -4 3 -3 2 -5 2 -5 2 -4 1 -5 2 -5 0 -5 0 -6 0 -8 -1 -7 -1 -7 -3 -6 -4 -6 -3 -5 -5 -5 -6 -5 -5 -3 -8 -3 -7 -4 -9 -2 -9 -1 -10 -1 -10 -1 -11 -1 -86 0zm53 35l23 0 6 0 5 0 6 1 4 1 4 1 5 2 3 1 3 2 3 2 2 2 3 3 1 4 2 3 0 3 1 4 0 5 0 4 -1 3 0 4 -2 3 -1 3 -2 2 -2 2 -3 3 -4 2 -3 1 -3 2 -4 1 -10 1 -9 0 -27 0 0 -65z"/>
    <path id="1" class="fil1" d="M8540 12l-14 1 -13 2 -13 1 -13 3 -12 4 -11 4 -11 5 -11 6 -10 7 -10 7 -9 8 -9 9 -9 9 -8 11 -8 10 -7 11 -7 13 -5 13 -6 13 -4 13 -3 13 -2 14 -1 13 -1 14 0 10 1 9 1 10 2 11 1 9 3 9 3 9 4 10 3 8 4 8 5 9 5 8 6 8 5 8 7 8 7 8 7 7 8 7 8 6 8 6 8 5 8 6 9 4 8 4 9 3 9 4 9 3 10 2 9 1 9 2 10 1 11 0 9 0 10 -1 9 -2 10 -1 9 -2 9 -3 9 -3 9 -4 8 -3 9 -4 8 -5 8 -5 8 -7 8 -6 8 -6 7 -7 7 -7 7 -8 6 -8 6 -8 5 -8 4 -9 5 -9 3 -8 4 -9 3 -10 2 -10 3 -9 2 -10 0 -10 1 -11 1 -10 -1 -10 -1 -10 0 -11 -2 -9 -2 -10 -3 -9 -3 -9 -3 -9 -4 -9 -4 -8 -4 -9 -6 -8 -5 -8 -5 -8 -7 -8 -6 -7 -8 -7 -8 -7 -7 -7 -8 -5 -9 -6 -7 -5 -10 -5 -8 -4 -8 -3 -10 -3 -10 -3 -9 -3 -10 -1 -10 -1 -9 -1 -10 -1zm0 34l8 0 9 1 8 1 8 1 8 2 7 2 8 2 8 4 7 3 7 4 7 4 7 5 7 4 6 6 6 6 7 6 5 6 5 6 5 7 4 6 5 7 4 8 3 7 3 8 3 7 3 9 1 7 2 9 1 8 2 9 0 8 0 10 0 9 0 7 -2 9 -1 8 -2 7 -2 8 -3 8 -2 7 -3 7 -5 7 -3 7 -4 7 -5 7 -4 7 -7 5 -5 7 -6 6 -7 6 -7 5 -6 5 -7 4 -7 4 -7 4 -8 2 -7 4 -7 3 -8 1 -7 2 -8 2 -8 0 -9 1 -7 1 -9 -1 -8 -1 -9 -1 -7 -1 -8 -2 -8 -2 -7 -2 -7 -4 -7 -3 -7 -4 -7 -4 -7 -5 -7 -4 -7 -6 -6 -5 -6 -7 -5 -6 -6 -6 -5 -7 -5 -7 -4 -7 -4 -7 -3 -7 -4 -8 -3 -7 -2 -7 -2 -8 -1 -8 -2 -8 0 -8 -1 -9 0 -8 0 -9 1 -8 0 -9 2 -8 2 -8 2 -9 2 -7 3 -7 3 -8 5 -7 4 -7 4 -7 5 -7 5 -7 6 -7 5 -7 7 -5 5 -6 7 -5 7 -5 6 -4 7 -4 7 -3 7 -4 7 -3 7 -3 8 -1 7 -2 8 -1 8 -1 8 -1 9 0zm-82 53l0 225 53 0 0 -91 27 0 41 91 59 0 -50 -100 6 -2 6 -2 5 -2 4 -2 5 -4 3 -3 4 -3 3 -4 3 -3 2 -5 2 -5 2 -4 1 -5 2 -5 0 -5 0 -6 0 -8 -1 -7 -1 -7 -3 -6 -4 -6 -3 -5 -5 -5 -6 -5 -5 -3 -8 -3 -7 -4 -9 -2 -9 -1 -10 -1 -10 -1 -11 -1 -86 0zm53 35l23 0 6 0 5 0 6 1 4 1 4 1 5 2 3 1 3 2 3 2 2 2 3 3 1 4 2 3 0 3 1 4 0 5 0 4 -1 3 0 4 -2 3 -1 3 -2 2 -2 2 -3 3 -4 2 -3 1 -3 2 -4 1 -10 1 -9 0 -27 0 0 -65z"/>
   </g>
  </g>
 </g>
</svg>
